<?xml version="1.0" encoding="UTF-8"?>
<svg width="24px" height="24px" viewBox="0 0 24 24" version="1.1" xmlns="http://www.w3.org/2000/svg" xmlns:xlink="http://www.w3.org/1999/xlink">
    <!-- Generator: Sketch 45.1 (43504) - http://www.bohemiancoding.com/sketch -->
    <title>Mymoid-font/add</title>
    <desc>Created with Sketch.</desc>
    <defs></defs>
    <g id="Export-Fonts" stroke="none" stroke-width="1" fill="none" fill-rule="evenodd">
        <g id="Mymoid-font/add" fill-rule="nonzero" fill="#000000">
            <path d="M17.7999348,12.0007595 C17.7999348,8.7969244 15.2033886,6.20006522 12,6.20006522 C8.79758696,6.20006522 6.20006522,8.79746757 6.20006522,12.0007595 C6.20006522,15.2037245 8.79725982,17.7999348 12,17.7999348 C15.2037157,17.7999348 17.7999348,15.2042675 17.7999348,12.0007595 Z M18.7999348,12.0007595 C18.7999348,15.7565999 15.7559529,18.7999348 12,18.7999348 C8.24505991,18.7999348 5.20006522,15.7560942 5.20006522,12.0007595 C5.20006522,8.24517253 8.2453125,5.20006522 12,5.20006522 C15.7557004,5.20006522 18.7999348,8.24466663 18.7999348,12.0007595 Z" id="Stroke"></path>
            <path d="M11.5,8.5 L11.5,15.5 C11.5,15.7761424 11.7238576,16 12,16 C12.2761424,16 12.5,15.7761424 12.5,15.5 L12.5,8.5 C12.5,8.22385763 12.2761424,8 12,8 C11.7238576,8 11.5,8.22385763 11.5,8.5 Z" id="Stroke"></path>
            <path d="M8.5,12.5 L15.5,12.5 C15.7761424,12.5 16,12.2761424 16,12 C16,11.7238576 15.7761424,11.5 15.5,11.5 L8.5,11.5 C8.22385763,11.5 8,11.7238576 8,12 C8,12.2761424 8.22385763,12.5 8.5,12.5 Z" id="Stroke"></path>
        </g>
    </g>
</svg>