<?xml version="1.0" encoding="UTF-8"?>
<svg width="24px" height="24px" viewBox="0 0 24 24" version="1.1" xmlns="http://www.w3.org/2000/svg" xmlns:xlink="http://www.w3.org/1999/xlink">
    <!-- Generator: Sketch 45.1 (43504) - http://www.bohemiancoding.com/sketch -->
    <title>Mymoid-font/bank</title>
    <desc>Created with Sketch.</desc>
    <defs></defs>
    <g id="Export-Fonts" stroke="none" stroke-width="1" fill="none" fill-rule="evenodd">
        <g id="Mymoid-font/bank" fill-rule="nonzero" fill="#000000">
            <path d="M8.5,9 C8.224,9 8,9.223 8,9.5 L8,21.5 C8,21.776 8.224,22 8.5,22 L10.5,22 C10.776,22 11,21.776 11,21.5 L11,9.5 C11,9.223 10.776,9 10.5,9 L8.5,9 Z M10,21 L9,21 L9,10 L10,10 L10,21 Z" id="Shape"></path>
            <path d="M3.5,9 C3.224,9 3,9.223 3,9.5 L3,21.5 C3,21.776 3.224,22 3.5,22 L5.5,22 C5.776,22 6,21.776 6,21.5 L6,9.5 C6,9.223 5.776,9 5.5,9 L3.5,9 Z M5,21 L4,21 L4,10 L5,10 L5,21 Z" id="Shape"></path>
            <path d="M13.5,9 C13.224,9 13,9.223 13,9.5 L13,21.5 C13,21.776 13.224,22 13.5,22 L15.5,22 C15.776,22 16,21.776 16,21.5 L16,9.5 C16,9.223 15.776,9 15.5,9 L13.5,9 Z M15,21 L14,21 L14,10 L15,10 L15,21 Z" id="Shape"></path>
            <path d="M18.5,9 C18.224,9 18,9.223 18,9.5 L18,21.5 C18,21.776 18.224,22 18.5,22 L20.5,22 C20.776,22 21,21.776 21,21.5 L21,9.5 C21,9.223 20.776,9 20.5,9 L18.5,9 Z M20,21 L19,21 L19,10 L20,10 L20,21 Z" id="Shape"></path>
            <path d="M0.6,8 L23.4,8 C23.624,8 23.82,7.851 23.881,7.636 C23.942,7.421 23.852,7.191 23.661,7.074 L12.261,0.074 C12.1,-0.025 11.899,-0.025 11.738,0.074 L0.338,7.074 C0.148,7.191 0.058,7.421 0.119,7.636 C0.18,7.851 0.376,8 0.6,8 Z M12,1.087 L21.631,7 L2.37,7 L12,1.087 Z" id="Shape"></path>
            <path d="M23.4,23 L0.6,23 C0.324,23 0.1,23.224 0.1,23.5 C0.1,23.776 0.324,24 0.6,24 L23.4,24 C23.676,24 23.9,23.776 23.9,23.5 C23.9,23.224 23.677,23 23.4,23 Z" id="Shape"></path>
            <path d="M12,3 C11.173,3 10.5,3.673 10.5,4.5 C10.5,5.327 11.173,6 12,6 C12.827,6 13.5,5.327 13.5,4.5 C13.5,3.673 12.827,3 12,3 Z M12,5 C11.724,5 11.5,4.776 11.5,4.5 C11.5,4.224 11.724,4 12,4 C12.276,4 12.5,4.224 12.5,4.5 C12.5,4.776 12.276,5 12,5 Z" id="Shape"></path>
        </g>
    </g>
</svg>