<?xml version="1.0" encoding="UTF-8"?>
<svg width="24px" height="24px" viewBox="0 0 24 24" version="1.1" xmlns="http://www.w3.org/2000/svg" xmlns:xlink="http://www.w3.org/1999/xlink">
    <!-- Generator: Sketch 45.1 (43504) - http://www.bohemiancoding.com/sketch -->
    <title>Mymoid-font/card_vault</title>
    <desc>Created with Sketch.</desc>
    <defs></defs>
    <g id="Export-Fonts" stroke="none" stroke-width="1" fill="none" fill-rule="evenodd">
        <g id="Mymoid-font/card_vault" fill-rule="nonzero" fill="#000000">
            <path d="M13.0225,13.6462801 L13.0225,11.9362801 C13.0225,10.6483905 14.1636516,9.62428011 15.5415,9.62428011 C16.9200365,9.62428011 18.0605,10.6481231 18.0605,11.9362801 L18.0605,13.6462801 L18.8622,13.6462801 C19.7419984,13.6462801 20.4662,14.3365135 20.4636932,15.2482856 L19.9782,20.0532801 C19.9782,20.9150125 19.2530567,21.6052801 18.3732,21.6052801 L12.7102,21.6052801 C11.8304016,21.6052801 11.1062,20.9150467 11.108717,20.103387 L10.6172,15.1982801 C10.6172,14.3367688 11.3421225,13.6462801 12.2212,13.6462801 L13.0225,13.6462801 Z M14.0225,13.6462801 L17.0605,13.6462801 L17.0605,11.9362801 C17.0605,11.2258944 16.390359,10.6242801 15.5415,10.6242801 C14.6932627,10.6242801 14.0225,11.2262466 14.0225,11.9362801 L14.0225,13.6462801 Z M12.2212,14.6462801 C11.8838156,14.6462801 11.6172,14.9002314 11.614683,15.1481732 L12.1062,20.0532801 C12.1062,20.3517311 12.3722268,20.6052801 12.7102,20.6052801 L18.3732,20.6052801 C18.7114955,20.6052801 18.9782,20.3514028 18.9807068,20.0032746 L19.4662,15.1982801 C19.4662,14.8998291 19.2001732,14.6462801 18.8622,14.6462801 L12.2212,14.6462801 Z" id="Combined-Shape"></path>
            <path d="M15.041,17.6257801 L15.041,18.7407801 C15.041,19.0169225 15.2648576,19.2407801 15.541,19.2407801 C15.8171424,19.2407801 16.041,19.0169225 16.041,18.7407801 L16.041,17.6257801 C16.041,17.3496377 15.8171424,17.1257801 15.541,17.1257801 C15.2648576,17.1257801 15.041,17.3496377 15.041,17.6257801 Z" id="Stroke"></path>
            <path d="M22.999,7.58528011 L0.997,7.58528011 L0.997,17.7537801 C0.997,18.2070419 1.36354635,18.5737801 1.817,18.5737801 L8.5906036,18.5737801 C8.86674597,18.5737801 9.0906036,18.7976377 9.0906036,19.0737801 C9.0906036,19.3499225 8.86674597,19.5737801 8.5906036,19.5737801 L1.817,19.5737801 C0.811144391,19.5737801 -0.003,18.7592095 -0.003,17.7537801 L-0.003,4.42278011 C-0.003,3.41742465 0.811070756,2.60378011 1.817,2.60378011 L22.179,2.60378011 C23.1842162,2.60378011 23.999,3.41771121 23.999,4.42278011 L23.999,17.7537801 C23.999,18.7589225 23.1841424,19.5737801 22.179,19.5737801 C21.9028576,19.5737801 21.679,19.3499225 21.679,19.0737801 C21.679,18.7976377 21.9028576,18.5737801 22.179,18.5737801 C22.6318576,18.5737801 22.999,18.2066377 22.999,17.7537801 L22.999,7.58528011 Z M22.999,6.58528011 L22.999,4.42278011 C22.999,3.9702305 22.6321657,3.60378011 22.179,3.60378011 L1.817,3.60378011 C1.36323831,3.60378011 0.997,3.96982667 0.997,4.42278011 L0.997,6.58528011 L22.999,6.58528011 Z" id="Combined-Shape"></path>
            <path d="M3.5,14.7034801 L7.5,14.7034801 C7.77614237,14.7034801 8,14.4796225 8,14.2034801 C8,13.9273377 7.77614237,13.7034801 7.5,13.7034801 L3.5,13.7034801 C3.22385763,13.7034801 3,13.9273377 3,14.2034801 C3,14.4796225 3.22385763,14.7034801 3.5,14.7034801 Z" id="Stroke"></path>
        </g>
    </g>
</svg>