<?xml version="1.0" encoding="UTF-8"?>
<svg width="24px" height="24px" viewBox="0 0 24 24" version="1.1" xmlns="http://www.w3.org/2000/svg" xmlns:xlink="http://www.w3.org/1999/xlink">
    <!-- Generator: Sketch 45.1 (43504) - http://www.bohemiancoding.com/sketch -->
    <title>Mymoid-font/chat</title>
    <desc>Created with Sketch.</desc>
    <defs></defs>
    <g id="Export-Fonts" stroke="none" stroke-width="1" fill="none" fill-rule="evenodd">
        <g id="Mymoid-font/chat" fill-rule="nonzero" fill="#000000">
            <path d="M3.6294,18.6363636 C1.66662558,18.6363636 0.0004,17.0417763 0.0004,15.1123636 L0.0004,10.1483636 C0.0004,8.22050109 1.66481592,6.63636364 3.6294,6.63636364 L15.4634,6.63636364 C17.4141987,6.63636364 19.0004,8.20886285 19.0004,10.1483636 L19.0004,15.1123636 C19.0004,17.0535307 17.4125136,18.6363636 15.4634,18.6363636 L9.51115807,18.6363636 L5.97006134,22.0032067 C5.16414055,22.7451922 4.0004,22.1616902 4.0004,21.0843636 L4.0004,18.6363636 L3.6294,18.6363636 Z M15.4634,7.63636364 L3.6294,7.63636364 C2.20634662,7.63636364 1.0004,8.78414478 1.0004,10.1483636 L1.0004,15.1123636 C1.0004,16.4794217 2.20931855,17.6363636 3.6294,17.6363636 L4.5004,17.6363636 C4.77654237,17.6363636 5.0004,17.8602213 5.0004,18.1363636 L5.0004,21.0843636 C5.0004,21.3211229 5.151971,21.3971209 5.28687003,21.2730115 L8.96687003,17.7740115 C9.05981065,17.6856421 9.18315375,17.6363636 9.3114,17.6363636 L15.4634,17.6363636 C16.8609411,17.6363636 18.0004,16.5005312 18.0004,15.1123636 L18.0004,10.1483636 C18.0004,8.76309902 16.8638467,7.63636364 15.4634,7.63636364 Z" id="Stroke"></path>
            <path d="M20.7557333,12.636114 C22.5667321,12.4318749 23.9997,10.8970556 23.9997,9.08526364 L23.9997,5.21126364 C23.9997,3.2560175 22.2729813,1.63626364 20.2777,1.63626364 L10.4247,1.63626364 C8.60026288,1.63626364 7.19881216,3.01838877 7.02293794,4.87100977 C6.99684034,5.14591616 7.19853973,5.38992811 7.47344613,5.4160257 C7.74835253,5.44212329 7.99236447,5.2404239 8.01846206,4.96551751 C8.14717167,3.60971836 9.13423774,2.63626364 10.4247,2.63626364 L20.2777,2.63626364 C21.7344848,2.63626364 22.9997,3.82310269 22.9997,5.21126364 L22.9997,9.08526364 C22.9997,10.3784879 21.9580443,11.4941817 20.6436667,11.6424133 C20.3692638,11.6733596 20.1719033,11.9208941 20.2028497,12.195297 C20.233796,12.4696998 20.4813304,12.6670603 20.7557333,12.636114 Z" id="Stroke"></path>
            <path d="M4.5171,14.6363636 L14.4311,14.6363636 C14.7072424,14.6363636 14.9311,14.412506 14.9311,14.1363636 C14.9311,13.8602213 14.7072424,13.6363636 14.4311,13.6363636 L4.5171,13.6363636 C4.24095763,13.6363636 4.0171,13.8602213 4.0171,14.1363636 C4.0171,14.412506 4.24095763,14.6363636 4.5171,14.6363636 Z" id="Stroke"></path>
            <path d="M4.5171,11.6363636 L14.4311,11.6363636 C14.7072424,11.6363636 14.9311,11.412506 14.9311,11.1363636 C14.9311,10.8602213 14.7072424,10.6363636 14.4311,10.6363636 L4.5171,10.6363636 C4.24095763,10.6363636 4.0171,10.8602213 4.0171,11.1363636 C4.0171,11.412506 4.24095763,11.6363636 4.5171,11.6363636 Z" id="Stroke"></path>
        </g>
    </g>
</svg>