<?xml version="1.0" encoding="UTF-8"?>
<svg width="24px" height="24px" viewBox="0 0 24 24" version="1.1" xmlns="http://www.w3.org/2000/svg" xmlns:xlink="http://www.w3.org/1999/xlink">
    <!-- Generator: Sketch 45.1 (43504) - http://www.bohemiancoding.com/sketch -->
    <title>Mymoid-font/cog_wheel</title>
    <desc>Created with Sketch.</desc>
    <defs></defs>
    <g id="Export-Fonts" stroke="none" stroke-width="1" fill="none" fill-rule="evenodd">
        <g id="Mymoid-font/cog_wheel" fill-rule="nonzero" fill="#000000">
            <path d="M11.998,7.366 C9.435,7.366 7.35,9.451 7.35,12.014 C7.35,14.576 9.435,16.661 11.998,16.661 C14.56,16.661 16.645,14.576 16.645,12.014 C16.646,9.451 14.561,7.366 11.998,7.366 Z M11.998,15.662 C9.986,15.662 8.35,14.025 8.35,12.015 C8.35,10.003 9.986,8.367 11.998,8.367 C14.009,8.367 15.645,10.003 15.645,12.015 C15.646,14.025 14.009,15.662 11.998,15.662 Z" id="Shape"></path>
            <path d="M23.583,10.398 C23.552,10.175 23.376,10 23.152,9.971 L20.453,9.617 C20.267,8.962 20.006,8.33 19.672,7.733 L21.333,5.572 C21.47,5.394 21.471,5.145 21.335,4.966 C20.683,4.102 19.913,3.333 19.051,2.68 C18.87,2.545 18.623,2.545 18.445,2.682 L16.285,4.342 C15.687,4.007 15.056,3.745 14.399,3.559 L14.045,0.859 C14.016,0.636 13.841,0.46 13.617,0.429 C12.517,0.276 11.491,0.275 10.388,0.428 C10.164,0.458 9.99,0.635 9.96,0.858 L9.606,3.558 C8.948,3.744 8.315,4.006 7.716,4.341 L5.556,2.68 C5.376,2.543 5.129,2.542 4.95,2.678 C4.099,3.322 3.309,4.111 2.666,4.961 C2.529,5.141 2.53,5.389 2.667,5.568 L4.327,7.728 C3.992,8.326 3.729,8.96 3.542,9.619 L0.842,9.973 C0.619,10.002 0.443,10.177 0.412,10.4 C0.264,11.472 0.264,12.558 0.412,13.629 C0.443,13.853 0.619,14.027 0.842,14.057 L3.542,14.411 C3.728,15.07 3.991,15.704 4.327,16.303 L2.667,18.463 C2.53,18.642 2.529,18.89 2.665,19.069 C3.31,19.919 4.1,20.709 4.95,21.351 C5.129,21.487 5.377,21.485 5.556,21.348 L7.717,19.688 C8.315,20.023 8.948,20.286 9.607,20.471 L9.96,23.17 C9.989,23.394 10.164,23.57 10.388,23.601 C10.938,23.677 11.469,23.714 11.999,23.714 C12.532,23.714 13.065,23.676 13.617,23.6 C13.841,23.57 14.015,23.393 14.045,23.17 L14.399,20.469 C15.055,20.282 15.687,20.021 16.285,19.686 L18.445,21.346 C18.624,21.484 18.873,21.483 19.051,21.348 C19.912,20.697 20.682,19.927 21.335,19.063 C21.471,18.883 21.47,18.635 21.333,18.457 L19.673,16.297 C20.007,15.698 20.269,15.067 20.453,14.412 L23.153,14.058 C23.376,14.029 23.552,13.854 23.583,13.63 C23.736,12.527 23.736,11.5 23.583,10.398 Z M22.639,13.116 L19.99,13.463 C19.785,13.49 19.618,13.641 19.569,13.843 C19.381,14.626 19.07,15.377 18.645,16.073 C18.538,16.25 18.549,16.474 18.675,16.638 L20.304,18.757 C19.838,19.329 19.317,19.851 18.746,20.316 L16.627,18.687 C16.461,18.561 16.238,18.548 16.061,18.657 C15.368,19.083 14.617,19.394 13.83,19.584 C13.629,19.633 13.478,19.8 13.451,20.005 L13.104,22.655 C12.36,22.732 11.645,22.731 10.901,22.656 L10.554,20.009 C10.527,19.803 10.377,19.636 10.175,19.587 C9.386,19.398 8.634,19.086 7.94,18.66 C7.764,18.554 7.538,18.564 7.374,18.69 L5.254,20.319 C4.689,19.858 4.159,19.329 3.697,18.762 L5.325,16.644 C5.451,16.48 5.463,16.254 5.355,16.078 C4.929,15.383 4.616,14.631 4.427,13.841 C4.379,13.64 4.211,13.489 4.006,13.462 L1.358,13.115 C1.283,12.384 1.283,11.646 1.358,10.914 L4.006,10.567 C4.211,10.54 4.379,10.39 4.427,10.188 C4.616,9.398 4.929,8.646 5.355,7.951 C5.463,7.774 5.452,7.549 5.325,7.385 L3.697,5.266 C4.159,4.701 4.688,4.171 5.255,3.71 L7.374,5.338 C7.538,5.465 7.764,5.477 7.94,5.368 C8.635,4.943 9.387,4.631 10.175,4.442 C10.376,4.394 10.527,4.226 10.554,4.021 L10.901,1.373 C11.647,1.296 12.36,1.296 13.104,1.374 L13.451,4.023 C13.478,4.228 13.629,4.396 13.83,4.444 C14.617,4.633 15.368,4.945 16.061,5.37 C16.239,5.477 16.461,5.466 16.627,5.34 L18.746,3.711 C19.316,4.176 19.839,4.698 20.304,5.27 L18.674,7.39 C18.548,7.554 18.536,7.779 18.644,7.956 C19.07,8.65 19.38,9.401 19.569,10.186 C19.618,10.388 19.785,10.538 19.991,10.565 L22.639,10.912 C22.717,11.656 22.717,12.371 22.639,13.116 Z" id="Shape"></path>
        </g>
    </g>
</svg>