<?xml version="1.0" encoding="UTF-8"?>
<svg width="24px" height="24px" viewBox="0 0 24 24" version="1.1" xmlns="http://www.w3.org/2000/svg" xmlns:xlink="http://www.w3.org/1999/xlink">
    <!-- Generator: Sketch 45.1 (43504) - http://www.bohemiancoding.com/sketch -->
    <title>Mymoid-font/customer</title>
    <desc>Created with Sketch.</desc>
    <defs></defs>
    <g id="Export-Fonts" stroke="none" stroke-width="1" fill="none" fill-rule="evenodd">
        <g id="Mymoid-font/customer" fill-rule="nonzero" fill="#000000">
            <path d="M16.228,15.039 C15.951,15.006 15.702,15.191 15.663,15.464 C15.624,15.737 15.814,15.99 16.088,16.029 C20.033,16.587 22.788,17.917 22.788,19.263 C22.788,20.928 18.358,22.783 12.001,22.783 C5.644,22.783 1.214,20.929 1.214,19.263 C1.214,18.109 3.558,16.621 8.037,16.01 C8.311,15.973 8.502,15.721 8.465,15.448 C8.428,15.174 8.175,14.97 7.902,15.02 C3.16,15.666 0.214,17.292 0.214,19.263 C0.214,22.199 6.287,23.783 12.001,23.783 C17.715,23.783 23.788,22.199 23.788,19.263 C23.787,17.317 20.891,15.698 16.228,15.039 Z" id="Shape"></path>
            <path d="M11.501,12.855 L11.501,20.276 C11.501,20.552 11.725,20.776 12.001,20.776 C12.277,20.776 12.501,20.552 12.501,20.276 L12.501,12.855 C12.501,12.579 12.277,12.355 12.001,12.355 C11.725,12.355 11.501,12.578 11.501,12.855 Z" id="Shape"></path>
            <path d="M12.001,4.107 C13.043,4.107 13.734,2.823 13.734,1.974 C13.734,1.018 12.956,0.24 12.001,0.24 C11.045,0.24 10.267,1.018 10.267,1.974 C10.267,2.823 10.958,4.107 12.001,4.107 Z M12.001,1.24 C12.405,1.24 12.734,1.569 12.734,1.974 C12.734,2.461 12.316,3.107 12.001,3.107 C11.686,3.107 11.267,2.461 11.267,1.974 C11.267,1.57 11.596,1.24 12.001,1.24 Z" id="Shape"></path>
            <path d="M9.024,11.803 C9.154,11.916 9.302,11.948 9.441,11.95 L9.905,20.303 C9.92,20.579 10.143,20.805 10.432,20.775 C10.708,20.76 10.919,20.524 10.903,20.249 L10.416,11.482 C10.411,11.344 10.329,11.17 10.225,11.08 C10.099,10.97 9.954,10.936 9.819,10.931 C9.681,6.78 9.901,5.528 9.974,5.213 C10.057,5.209 10.15,5.206 10.236,5.202 L10.561,5.247 C10.819,5.747 11.371,6.058 12.001,6.058 C12.631,6.058 13.183,5.747 13.493,5.189 L13.766,5.202 C13.845,5.205 13.931,5.208 14.005,5.211 C14.111,5.604 14.316,6.903 14.183,10.93 C14.047,10.935 13.903,10.97 13.776,11.079 C13.674,11.167 13.592,11.337 13.586,11.472 L13.098,20.248 C13.082,20.523 13.293,20.759 13.57,20.774 C13.579,20.775 13.589,20.775 13.597,20.775 C13.861,20.775 14.081,20.569 14.096,20.302 L14.561,11.949 C14.7,11.946 14.848,11.914 14.978,11.802 C15.082,11.711 15.163,11.541 15.168,11.403 C15.407,4.983 14.873,4.539 14.646,4.35 C14.592,4.305 14.528,4.271 14.459,4.252 C14.373,4.228 14.275,4.22 13.808,4.201 L13.557,4.19 C13.126,4.161 12.755,4.393 12.552,4.788 C12.346,5.185 11.655,5.184 11.45,4.788 C11.246,4.393 10.861,4.164 10.445,4.19 L10.195,4.201 C9.727,4.222 9.629,4.23 9.543,4.254 C9.474,4.273 9.409,4.307 9.354,4.353 C9.126,4.543 8.594,4.989 8.834,11.405 C8.839,11.543 8.92,11.712 9.024,11.803 Z" id="Shape"></path>
        </g>
    </g>
</svg>