<?xml version="1.0" encoding="UTF-8"?>
<svg width="24px" height="24px" viewBox="0 0 24 24" version="1.1" xmlns="http://www.w3.org/2000/svg" xmlns:xlink="http://www.w3.org/1999/xlink">
    <!-- Generator: Sketch 45.1 (43504) - http://www.bohemiancoding.com/sketch -->
    <title>Mymoid-font/dashboard</title>
    <desc>Created with Sketch.</desc>
    <defs></defs>
    <g id="Export-Fonts" stroke="none" stroke-width="1" fill="none" fill-rule="evenodd">
        <g id="Mymoid-font/dashboard" fill-rule="nonzero" fill="#000000">
            <path d="M22.50977,0.02635 L1.50977,0.02635 C0.68262,0.02635 0.00977,0.6992 0.00977,1.52635 L0.00977,22.52635 C0.00977,23.3535 0.68262,24.02635 1.50977,24.02635 L22.50977,24.02635 C23.33692,24.02635 24.00977,23.3535 24.00977,22.52635 L24.00977,1.52635 C24.00977,0.6992 23.33691,0.02635 22.50977,0.02635 Z M1.50977,1.02635 L22.50977,1.02635 C22.78516,1.02635 23.00977,1.25047 23.00977,1.52635 L23.00977,4.02635 L1.00977,4.02635 L1.00977,1.52635 C1.00977,1.25047 1.23389,1.02635 1.50977,1.02635 Z M22.50977,23.02635 L1.50977,23.02635 C1.23389,23.02635 1.00977,22.80174 1.00977,22.52635 L1.00977,5.02635 L23.00977,5.02635 L23.00977,22.52635 C23.00977,22.80174 22.78516,23.02635 22.50977,23.02635 Z" id="Shape"></path>
            <path d="M2.1499,2.87987 C2.1997,2.92967 2.25976,2.95995 2.31982,2.98973 C2.37988,3.00975 2.43994,3.02977 2.50976,3.02977 C2.56982,3.02977 2.63964,3.00975 2.6997,2.98973 C2.75976,2.95994 2.81982,2.92967 2.85986,2.87987 C2.95996,2.77977 3.00976,2.65966 3.00976,2.52977 C3.00976,2.45995 2.99999,2.39989 2.96972,2.33983 C2.94971,2.27 2.90967,2.21971 2.85986,2.16991 C2.71973,2.02977 2.5,1.98973 2.31982,2.06981 C2.25977,2.08983 2.19971,2.12987 2.1499,2.16991 C2.06006,2.27 2.00977,2.38963 2.00977,2.52977 C2.00977,2.58983 2.02002,2.65965 2.04981,2.71971 C2.06982,2.77977 2.10986,2.82957 2.1499,2.87987 Z" id="Shape"></path>
            <path d="M4.31982,2.98973 C4.37988,3.00975 4.43994,3.02977 4.50976,3.02977 C4.63964,3.02977 4.77001,2.96971 4.85986,2.87987 C4.90966,2.82958 4.9497,2.77977 4.96972,2.71971 C5,2.65965 5.00977,2.58983 5.00977,2.52977 C5.00977,2.45995 5,2.39989 4.96973,2.32957 C4.94971,2.27 4.90967,2.21971 4.85986,2.16991 C4.71973,2.02977 4.5,1.98973 4.31982,2.06004 C4.25977,2.08983 4.19971,2.12987 4.1499,2.16991 C4.06006,2.27 4.00977,2.38963 4.00977,2.52977 C4.00977,2.65965 4.06006,2.79002 4.14991,2.87987 C4.19971,2.92967 4.25977,2.95995 4.31982,2.98973 Z" id="Shape"></path>
            <path d="M6.50977,3.02977 C6.63965,3.02977 6.77002,2.96971 6.85987,2.87987 C6.95997,2.79003 7.00977,2.65966 7.00977,2.52977 C7.00977,2.45995 7,2.39989 6.96973,2.32957 C6.93994,2.27 6.90967,2.21971 6.85986,2.16991 C6.67968,1.98973 6.33984,1.98973 6.1499,2.16991 C6.10986,2.21971 6.06982,2.27 6.0498,2.32957 C6.02001,2.39988 6.00976,2.45994 6.00976,2.52977 C6.00976,2.65965 6.06005,2.79002 6.1499,2.87987 C6.25,2.96971 6.37988,3.02977 6.50977,3.02977 Z" id="Shape"></path>
            <path d="M20.50977,19.17479 C19.31153,19.17479 18.81641,17.59569 18.19727,15.18553 C17.84131,13.80028 17.45423,12.30833 16.7273,11.33043 C16.76771,11.34062 16.80829,11.35106 16.84961,11.35106 C16.99414,11.35106 17.13867,11.28807 17.23731,11.16698 L17.29883,11.09178 C17.47559,10.87938 17.44629,10.56395 17.2334,10.38768 C17.02149,10.2119 16.70703,10.24022 16.5293,10.45311 L16.46192,10.53514 C16.3747,10.64207 16.33918,10.77403 16.352,10.90111 C15.92066,10.49468 15.38813,10.24755 14.70997,10.24755 C12.64893,10.24755 12.21729,12.60204 11.79981,14.8789 C11.70722,15.38421 11.61457,15.84356 11.5174,16.27514 C11.36792,16.37011 11.27936,16.54437 11.29639,16.74023 C11.30219,16.80731 11.32343,16.86944 11.35492,16.92565 C10.97125,18.32342 10.44855,19.1748 9.38574,19.1748 C8.09375,19.1748 7.57519,17.23437 7.02636,15.18066 C6.4082,12.86865 5.70751,10.24755 3.49267,10.24755 C3.2163,10.24755 2.99267,10.47118 2.99267,10.74755 C2.99267,11.02392 3.2163,11.24755 3.49267,11.24755 C4.83935,11.24755 5.38329,12.90722 6.06005,15.43944 C6.68261,17.76756 7.32616,20.17479 9.38573,20.17479 C11.84618,20.17479 12.34423,17.45702 12.78368,15.05956 C13.20507,12.75683 13.56737,11.24755 14.70995,11.24755 C15.26317,11.24755 15.67382,11.54186 16.01555,12.04967 C15.77879,11.9699 15.51396,12.06835 15.40526,12.30028 L15.36131,12.39257 C15.24217,12.64159 15.34861,12.93993 15.59764,13.05859 C15.66698,13.09179 15.74022,13.10742 15.81248,13.10742 C15.999,13.10742 16.17869,13.00195 16.26365,12.82226 L16.3076,12.72997 C16.32371,12.69634 16.32567,12.66088 16.33372,12.62603 C16.66355,13.34045 16.9351,14.2918 17.2285,15.43456 C17.82713,17.76464 18.44627,20.17479 20.50975,20.17479 C20.78612,20.17479 21.00975,19.95116 21.00975,19.67479 C21.00975,19.39842 20.78613,19.17479 20.50977,19.17479 Z" id="Shape"></path>
            <path d="M20.45898,9.76463 L20.50976,9.76463 C20.78613,9.76463 20.98437,9.541 20.98437,9.26463 C20.98437,8.98826 20.73535,8.76463 20.45898,8.76463 C20.18261,8.76463 19.95898,8.98826 19.95898,9.26463 C19.95898,9.541 20.18262,9.76463 20.45898,9.76463 Z" id="Shape"></path>
            <path d="M5.18994,10.21434 L5.25342,10.25633 C5.34082,10.31785 5.44092,10.34715 5.54004,10.34715 C5.69775,10.34715 5.85254,10.27293 5.94971,10.13426 C6.1084,9.90819 6.05371,9.59666 5.82764,9.43797 L5.72119,9.36668 C5.48828,9.22118 5.1792,9.291 5.03174,9.52489 C4.88525,9.75877 4.95605,10.06737 5.18994,10.21434 Z" id="Shape"></path>
            <path d="M6.30127,11.65135 C6.3833,11.83934 6.56689,11.95115 6.75977,11.95115 C6.82666,11.95115 6.89454,11.93797 6.95948,11.90916 C7.2129,11.79832 7.32813,11.50389 7.21729,11.25096 L7.17139,11.14891 C7.05664,10.89842 6.76123,10.78807 6.5083,10.90379 C6.25732,11.01902 6.14746,11.3159 6.26318,11.56688 L6.30127,11.65135 Z" id="Shape"></path>
            <path d="M13.36523,15.6367 C13.14453,15.80272 13.09961,16.11619 13.26464,16.3369 C13.36327,16.46776 13.51366,16.5371 13.66503,16.5371 C13.76952,16.5371 13.87499,16.50487 13.96483,16.43749 L14.06151,16.36229 C14.27635,16.18749 14.27538,15.89745 14.10155,15.68358 C13.92578,15.46971 13.58008,15.46288 13.36523,15.6367 Z" id="Shape"></path>
            <path d="M15.19434,13.96385 C14.94922,13.83592 14.62696,13.97264 14.5,14.21873 C14.36719,14.46092 14.45605,14.76463 14.69824,14.89744 C14.77441,14.93943 14.85644,14.95896 14.93847,14.95896 C15.11425,14.95896 15.28613,14.86521 15.37695,14.69919 L15.43066,14.59763 C15.55762,14.35252 15.44043,14.09081 15.19434,13.96385 Z" id="Shape"></path>
            <path d="M18.45605,10.12938 C18.52148,10.12938 18.58691,10.11668 18.65039,10.08983 L18.72754,10.05907 C18.98633,9.96093 19.11621,9.67235 19.01856,9.41405 C18.91993,9.15624 18.62989,9.02587 18.37403,9.12352 L18.26173,9.16893 C18.00685,9.27586 17.88771,9.56932 17.99513,9.82372 C18.07617,10.01463 18.26172,10.12938 18.45605,10.12938 Z" id="Shape"></path>
            <path d="M9.58984,16.91014 L9.68798,16.94627 C9.74071,16.9658 9.79296,16.97459 9.84325,16.97459 C10.03954,16.97459 10.20702,16.83689 10.28221,16.62986 C10.37645,16.37107 10.19578,16.06638 9.93651,15.97263 C9.67919,15.87497 9.39012,16.00876 9.29393,16.26853 C9.19873,16.52733 9.33105,16.81444 9.58984,16.91014 Z" id="Shape"></path>
            <path d="M6.93994,13.44725 L6.9707,13.53807 C7.04052,13.74705 7.23535,13.87987 7.44482,13.87987 C7.49707,13.87987 7.55029,13.87206 7.60302,13.85448 C7.86474,13.76659 8.00634,13.48339 7.91894,13.22167 L7.88427,13.11913 C7.79345,12.8579 7.50878,12.71972 7.24755,12.81102 C6.98682,12.90184 6.84912,13.18651 6.93994,13.44725 Z" id="Shape"></path>
            <path d="M7.81104,15.42674 L7.8711,15.51658 C7.95997,15.64842 8.09229,15.71092 8.23194,15.71092 C8.33448,15.71092 8.44141,15.67772 8.53858,15.61229 C8.76758,15.45799 8.80176,15.10741 8.64796,14.87791 C8.4961,14.64744 8.18702,14.58201 7.95558,14.73436 C7.72461,14.88573 7.66016,15.1953 7.81104,15.42674 Z" id="Shape"></path>
            <path d="M3.48779,9.79002 L3.53808,9.79051 C3.53954,9.79051 3.5415,9.79051 3.54296,9.79051 C3.8164,9.79051 4.01513,9.56981 4.01757,9.2949 C4.0205,9.01902 3.77343,8.79295 3.49755,8.79002 C3.49609,8.79002 3.49413,8.79002 3.49267,8.79002 C3.21874,8.79002 2.9956,9.01072 2.99267,9.28514 C2.99023,9.56151 3.21191,9.78709 3.48779,9.79002 Z" id="Shape"></path>
        </g>
    </g>
</svg>