<?xml version="1.0" encoding="UTF-8"?>
<svg width="24px" height="24px" viewBox="0 0 24 24" version="1.1" xmlns="http://www.w3.org/2000/svg" xmlns:xlink="http://www.w3.org/1999/xlink">
    <!-- Generator: Sketch 45.1 (43504) - http://www.bohemiancoding.com/sketch -->
    <title>Mymoid-font/extension</title>
    <desc>Created with Sketch.</desc>
    <defs></defs>
    <g id="Export-Fonts" stroke="none" stroke-width="1" fill="none" fill-rule="evenodd">
        <g id="Mymoid-font/extension" fill-rule="nonzero" fill="#000000">
            <path d="M22.155,-0.499 L1.845,-0.499 C0.828,-0.499 0,0.329 0,1.346 L0,21.656 C0,22.674 0.828,23.501 1.845,23.501 L22.155,23.501 C23.173,23.501 24,22.674 24,21.656 L24,1.346 C24,0.329 23.173,-0.499 22.155,-0.499 Z M22.155,22.501 L1.845,22.501 C1.379,22.501 1,22.122 1,21.656 L1,11.501 L2.356,11.501 C2.623,13.712 4.589,15.501 6.914,15.501 L8,15.501 C8,15.777 8.224,16.001 8.5,16.001 C8.776,16.001 9,15.777 9,15.501 L9,15.001 L9,13.501 L11.545,13.501 C11.821,13.501 12.045,13.277 12.045,13.001 C12.045,12.725 11.821,12.501 11.545,12.501 L9,12.501 L9,9.501 L11.545,9.501 C11.821,9.501 12.045,9.277 12.045,9.001 C12.045,8.725 11.821,8.501 11.545,8.501 L9,8.501 L9,7.001 L9,6.501 C9,6.225 8.776,6.001 8.5,6.001 C8.224,6.001 8,6.225 8,6.501 L6.914,6.501 C4.589,6.501 2.623,8.289 2.356,10.501 L1,10.501 L1,1.346 C1,0.88 1.379,0.501 1.845,0.501 L22.155,0.501 C22.621,0.501 23,0.881 23,1.346 L23,10.501 L21.573,10.501 C21.314,8.289 19.404,6.501 17.147,6.501 L15.5,6.501 C15.224,6.501 15,6.725 15,7.001 L15,15.001 C15,15.277 15.224,15.501 15.5,15.501 L17.147,15.501 C19.404,15.501 21.313,13.713 21.573,11.501 L23,11.501 L23,21.656 C23,22.122 22.621,22.501 22.155,22.501 Z M8,14.501 L6.914,14.501 C4.956,14.501 3.303,12.898 3.303,11.001 C3.303,9.104 4.957,7.501 6.914,7.501 L8,7.501 L8,14.501 Z M16,13.501 L17.328,13.501 C17.604,13.501 17.828,13.277 17.828,13.001 C17.828,12.725 17.604,12.501 17.328,12.501 L16,12.501 L16,9.501 L17.328,9.501 C17.604,9.501 17.828,9.277 17.828,9.001 C17.828,8.725 17.604,8.501 17.328,8.501 L16,8.501 L16,7.501 L17.147,7.501 C19.032,7.501 20.625,9.104 20.625,11.001 C20.625,12.898 19.032,14.501 17.147,14.501 L16,14.501 L16,13.501 Z" id="Shape"></path>
        </g>
    </g>
</svg>