<?xml version="1.0" encoding="UTF-8"?>
<svg width="25px" height="24px" viewBox="0 0 25 24" version="1.1" xmlns="http://www.w3.org/2000/svg" xmlns:xlink="http://www.w3.org/1999/xlink">
    <!-- Generator: Sketch 45.1 (43504) - http://www.bohemiancoding.com/sketch -->
    <title>Mymoid-font/form_exclamation_mark</title>
    <desc>Created with Sketch.</desc>
    <defs></defs>
    <g id="Export-Fonts" stroke="none" stroke-width="1" fill="none" fill-rule="evenodd">
        <g id="Mymoid-font/form_exclamation_mark" fill-rule="nonzero" fill="#000000">
            <path d="M12.4950042,16.5354964 C12.4950042,16.8116387 12.2711466,17.0354964 11.9950042,17.0354964 C11.7188618,17.0354964 11.4950042,16.8116387 11.4950042,16.5354964 L11.4950042,16.1734964 C11.4950042,15.897354 11.7188618,15.6734964 11.9950042,15.6734964 C12.2711466,15.6734964 12.4950042,15.897354 12.4950042,16.1734964 L12.4950042,16.5354964 Z M12.4515954,14.287076 C12.4495454,14.5632108 12.224032,14.7854003 11.9478972,14.7833502 C11.6717624,14.7813001 11.4495729,14.5557867 11.451623,14.2796519 L11.495018,8.43462601 C11.4970681,8.15849125 11.7225815,7.93630172 11.9987162,7.93835182 C12.274851,7.94040191 12.4970405,8.1659153 12.4949904,8.44205006 L12.4515954,14.287076 Z" id="Combined-Shape"></path>
        </g>
    </g>
</svg>