<?xml version="1.0" encoding="UTF-8"?>
<svg width="24px" height="24px" viewBox="0 0 24 24" version="1.1" xmlns="http://www.w3.org/2000/svg" xmlns:xlink="http://www.w3.org/1999/xlink">
    <!-- Generator: Sketch 45.1 (43504) - http://www.bohemiancoding.com/sketch -->
    <title>Mymoid-font/form_suspensive</title>
    <desc>Created with Sketch.</desc>
    <defs></defs>
    <g id="Export-Fonts" stroke="none" stroke-width="1" fill="none" fill-rule="evenodd">
        <g id="Mymoid-font/form_suspensive" fill-rule="nonzero" fill="#000000">
            <path d="M8.16541662,12.9300672 C7.63244328,12.9300672 7.20038303,12.4980069 7.20038303,11.9650336 C7.20038303,11.4320603 7.63244328,11 8.16541662,11 C8.69838995,11 9.13045021,11.4320603 9.13045021,11.9650336 C9.13045021,12.4980069 8.69838995,12.9300672 8.16541662,12.9300672 Z" id="Stroke"></path>
            <path d="M12.3152251,12.9300672 C11.7822518,12.9300672 11.3501915,12.4980069 11.3501915,11.9650336 C11.3501915,11.4320603 11.7822518,11 12.3152251,11 C12.8481984,11 13.2802587,11.4320603 13.2802587,11.9650336 C13.2802587,12.4980069 12.8481984,12.9300672 12.3152251,12.9300672 Z" id="Stroke"></path>
            <path d="M16.4650336,12.9300672 C15.9320603,12.9300672 15.5,12.4980069 15.5,11.9650336 C15.5,11.4320603 15.9320603,11 16.4650336,11 C16.9980069,11 17.4300672,11.4320603 17.4300672,11.9650336 C17.4300672,12.4980069 16.9980069,12.9300672 16.4650336,12.9300672 Z" id="Stroke"></path>
        </g>
    </g>
</svg>