<?xml version="1.0" encoding="UTF-8"?>
<svg width="24px" height="24px" viewBox="0 0 24 24" version="1.1" xmlns="http://www.w3.org/2000/svg" xmlns:xlink="http://www.w3.org/1999/xlink">
    <!-- Generator: Sketch 45.1 (43504) - http://www.bohemiancoding.com/sketch -->
    <title>Mymoid-font/form_lock</title>
    <desc>Created with Sketch.</desc>
    <defs></defs>
    <g id="Export-Fonts" stroke="none" stroke-width="1" fill="none" fill-rule="evenodd">
        <g id="Mymoid-font/form_lock" fill-rule="nonzero" fill="#000000">
            <path d="M9.5225,9.9428 L9.5225,8.2328 C9.5225,6.94491043 10.6636516,5.9208 12.0415,5.9208 C13.4200365,5.9208 14.5605,6.94464295 14.5605,8.2328 L14.5605,9.9428 L15.3622,9.9428 C16.2419984,9.9428 16.9662,10.6330334 16.9636932,11.5448055 L16.4782,16.3498 C16.4782,17.2115324 15.7530567,17.9018 14.8732,17.9018 L9.2102,17.9018 C8.33040158,17.9018 7.6062,17.2115666 7.60871704,16.3999069 L7.1172,11.4948 C7.1172,10.6332887 7.84212249,9.9428 8.7212,9.9428 L9.5225,9.9428 Z M10.5225,9.9428 L13.5605,9.9428 L13.5605,8.2328 C13.5605,7.5224143 12.890359,6.9208 12.0415,6.9208 C11.1932627,6.9208 10.5225,7.5227665 10.5225,8.2328 L10.5225,9.9428 Z M8.7212,10.9428 C8.38381556,10.9428 8.1172,11.1967513 8.11468296,11.4446931 L8.6062,16.3498 C8.6062,16.648251 8.87222677,16.9018 9.2102,16.9018 L14.8732,16.9018 C15.2114955,16.9018 15.4782,16.6479227 15.4807068,16.2997945 L15.9662,11.4948 C15.9662,11.196349 15.7001732,10.9428 15.3622,10.9428 L8.7212,10.9428 Z" id="Combined-Shape"></path>
            <path d="M11.541,13.9223 L11.541,15.0373 C11.541,15.3134424 11.7648576,15.5373 12.041,15.5373 C12.3171424,15.5373 12.541,15.3134424 12.541,15.0373 L12.541,13.9223 C12.541,13.6461576 12.3171424,13.4223 12.041,13.4223 C11.7648576,13.4223 11.541,13.6461576 11.541,13.9223 Z" id="Stroke"></path>
        </g>
    </g>
</svg>