<?xml version="1.0" encoding="UTF-8"?>
<svg width="24px" height="24px" viewBox="0 0 24 24" version="1.1" xmlns="http://www.w3.org/2000/svg" xmlns:xlink="http://www.w3.org/1999/xlink">
    <!-- Generator: Sketch 45.1 (43504) - http://www.bohemiancoding.com/sketch -->
    <title>Mymoid-font/form_button</title>
    <desc>Created with Sketch.</desc>
    <defs></defs>
    <g id="Export-Fonts" stroke="none" stroke-width="1" fill="none" fill-rule="evenodd">
        <g id="Mymoid-font/form_button" fill-rule="nonzero" fill="#000000">
            <path d="M21.369,3.001 L2.562,3.001 C1.125,3.001 0,4.124 0,5.558 L0,12.345 C0,13.809 1.149,15 2.562,15 L14.53,15 L15.076,18.13 C15.123,18.406 15.318,18.631 15.586,18.716 C15.854,18.8 16.143,18.732 16.339,18.532 L16.923,17.947 L17.906,19.674 C18.009,19.854 18.182,19.985 18.384,20.031 C18.441,20.045 18.498,20.051 18.555,20.051 C18.702,20.051 18.848,20.008 18.972,19.925 L20.313,19.021 C20.483,18.908 20.6,18.726 20.633,18.524 C20.666,18.323 20.614,18.114 20.491,17.951 L19.517,16.666 L20.04,16.562 C20.318,16.507 20.539,16.303 20.614,16.03 C20.69,15.756 20.606,15.468 20.393,15.275 L20.088,15.001 L21.368,15.001 C22.794,15.001 23.999,13.785 23.999,12.346 L23.999,5.558 C24,4.148 22.819,3.001 21.369,3.001 Z M19.532,18.342 L18.639,18.944 L17.466,16.884 C17.389,16.748 17.252,16.656 17.098,16.636 C17.076,16.632 17.054,16.631 17.032,16.631 C16.9,16.631 16.772,16.683 16.678,16.777 L15.977,17.479 L14.978,11.754 L19.348,15.68 L18.538,15.84 C18.369,15.873 18.228,15.991 18.167,16.152 C18.106,16.313 18.132,16.495 18.236,16.631 L19.532,18.342 Z M23,12.345 C23,13.227 22.238,14 21.369,14 L18.976,14 L15.102,10.52 C14.866,10.307 14.519,10.269 14.242,10.422 C13.963,10.576 13.813,10.892 13.869,11.203 L14.357,14 L2.562,14 C1.701,14.001 1,13.259 1,12.345 L1,5.558 C1,4.685 1.687,4.001 2.562,4.001 L21.369,4.001 C22.269,4.001 23,4.7 23,5.558 L23,12.345 Z" id="Shape"></path>
        </g>
    </g>
</svg>