<?xml version="1.0" encoding="UTF-8"?>
<svg width="24px" height="24px" viewBox="0 0 24 24" version="1.1" xmlns="http://www.w3.org/2000/svg" xmlns:xlink="http://www.w3.org/1999/xlink">
    <!-- Generator: Sketch 45.1 (43504) - http://www.bohemiancoding.com/sketch -->
    <title>Mymoid-font/form_error</title>
    <desc>Created with Sketch.</desc>
    <defs></defs>
    <g id="Export-Fonts" stroke="none" stroke-width="1" fill="none" fill-rule="evenodd">
        <g id="Mymoid-font/form_error" fill-rule="nonzero" fill="#000000">
            <path d="M11.001497,11.2858374 L8.78176637,9.07327569 C8.58618866,8.87832963 8.26960658,8.87884167 8.07466051,9.07441939 C7.87971444,9.2699971 7.88022649,9.58657917 8.0758042,9.78152524 L10.2932438,11.9918033 L8.0758042,14.2020813 C7.88022649,14.3970274 7.87971444,14.7136095 8.07466051,14.9091872 C8.26960658,15.1047649 8.58618866,15.1052769 8.78176637,14.9103309 L11.001497,12.6977691 L13.2212276,14.9103309 C13.4168054,15.1052769 13.7333874,15.1047649 13.9283335,14.9091872 C14.1232796,14.7136095 14.1227675,14.3970274 13.9271898,14.2020813 L11.7097503,11.9918033 L13.9271898,9.78152524 C14.1227675,9.58657917 14.1232796,9.2699971 13.9283335,9.07441939 C13.7333874,8.87884167 13.4168054,8.87832963 13.2212276,9.07327569 L11.001497,11.2858374 L11.001497,11.2858374 Z" id="Combined-Shape"></path>
        </g>
    </g>
</svg>