<?xml version="1.0" encoding="UTF-8"?>
<svg width="24px" height="24px" viewBox="0 0 24 24" version="1.1" xmlns="http://www.w3.org/2000/svg" xmlns:xlink="http://www.w3.org/1999/xlink">
    <!-- Generator: Sketch 45.1 (43504) - http://www.bohemiancoding.com/sketch -->
    <title>Mymoid-font/form_cog_wheel</title>
    <desc>Created with Sketch.</desc>
    <defs></defs>
    <g id="Export-Fonts" stroke="none" stroke-width="1" fill="none" fill-rule="evenodd">
        <g id="Mymoid-font/form_cog_wheel" fill-rule="nonzero" fill="#000000">
            <path d="M13.1992916,11.9130292 C13.1992916,11.2023418 12.6233553,10.6263361 11.9128138,10.6263361 C11.2025356,10.6263361 10.6263361,11.2025092 10.6263361,11.9130292 C10.6263361,12.6234298 11.2024162,13.1992916 11.9128138,13.1992916 C12.6234747,13.1992916 13.1992916,12.6235971 13.1992916,11.9130292 Z M14.1992916,11.9130292 C14.1992916,13.1759295 13.1757119,14.1992916 11.9128138,14.1992916 C10.6502163,14.1992916 9.62633606,13.1757994 9.62633606,11.9130292 C9.62633606,10.6502141 10.6502612,9.62633606 11.9128138,9.62633606 C13.175667,9.62633606 14.1992916,10.650084 14.1992916,11.9130292 Z" id="Stroke"></path>
            <path d="M15.6116526,13.7627136 L16.2301549,14.5674581 C16.3673934,14.7460215 16.3683181,14.9942973 16.2324135,15.1738781 C15.9301568,15.5732722 15.5744886,15.929123 15.1758317,16.2307186 C14.9962774,16.3665566 14.7480804,16.3656323 14.5695428,16.2284607 L13.7650243,15.6103434 C13.5892699,15.698655 13.4072356,15.7742987 13.2200937,15.8366379 L13.0884354,16.8426401 C13.0592125,17.0659326 12.884324,17.2421356 12.6612565,17.2730296 C12.1544376,17.3432221 11.67168,17.343104 11.1664596,17.2730137 C10.9434576,17.2420761 10.7686351,17.0659139 10.7394009,16.8426821 L10.6078018,15.8377946 C10.4201501,15.7754728 10.2377627,15.6998616 10.0616877,15.6115326 L9.25655682,16.2301971 C9.0779765,16.3674186 8.82969667,16.3683152 8.65013002,16.2323869 C8.25053219,15.9298995 7.88980292,15.5680014 7.59359603,15.1764225 C7.45775554,14.9968445 7.45870732,14.7486212 7.59592093,14.5700901 L8.21410476,13.7657601 C8.12541104,13.5892363 8.04952915,13.4064309 7.98705099,13.2184002 L6.9815302,13.0868065 C6.75815129,13.0575727 6.5819095,12.8825641 6.55110788,12.659396 C6.48234038,12.1611523 6.4835628,11.6549112 6.55112233,11.1661818 C6.58196571,10.943059 6.75819017,10.7681046 6.9815302,10.7388758 L7.98705099,10.6072822 C8.04952915,10.4192515 8.12541104,10.236446 8.21410476,10.0599222 L7.59592093,9.25559217 C7.45867078,9.07701354 7.4577588,8.82871304 7.59369346,8.64913103 C7.89526972,8.25072145 8.25783307,7.88994396 8.65033181,7.59314278 C8.82985392,7.45739106 9.07795095,7.45831758 9.25645413,7.59540635 L10.0618162,8.21391678 C10.2379037,8.12569587 10.4202451,8.05015564 10.6077883,7.98788362 L10.7393982,6.98258255 C10.7686466,6.75916888 10.9437131,6.58291875 11.1669246,6.55216568 C11.6723514,6.48253026 12.1549433,6.48253026 12.6612565,6.55265274 C12.884324,6.58354674 13.0592125,6.75974976 13.0884354,6.98304226 L13.2200925,7.98903546 C13.4071313,8.05132576 13.5891243,8.12690003 13.7648958,8.21510611 L14.5696455,7.59714275 C14.7481805,7.46004667 14.9963157,7.45915472 15.1758317,7.59496375 C15.5751772,7.89708028 15.9307586,8.25272251 16.2325891,8.65203636 C16.3683239,8.83160998 16.3673275,9.07974648 16.2301549,9.25822423 L15.6116526,10.0629687 C15.6995625,10.2384451 15.7748954,10.4200891 15.8370396,10.6068134 L16.8427906,10.7384371 C17.0661115,10.7676634 17.2423274,10.942591 17.2731914,11.1656914 C17.343461,11.673635 17.3427531,12.1559998 17.2732128,12.6598355 C17.2424109,12.8830033 17.0661692,13.0580114 16.8427906,13.0872452 L15.8370396,13.218869 C15.7748954,13.4055933 15.6995625,13.5872373 15.6116526,13.7627136 Z M14.6190072,14.1121731 C14.4928661,13.9480486 14.4809,13.7231663 14.5889119,13.5465823 C14.7588416,13.2687719 14.8844113,12.9667518 14.9610863,12.6485113 C15.0095719,12.4472717 15.1770466,12.2967157 15.3822945,12.2698547 L16.3191546,12.1472468 C16.3277613,11.9907306 16.3278054,11.8354237 16.3191883,11.67844 L15.3822945,11.5558276 C15.1770466,11.5289666 15.0095719,11.3784106 14.9610863,11.177171 C14.8844113,10.8589305 14.7588416,10.5569104 14.5889119,10.2791 C14.4809,10.102516 14.4928661,9.87763373 14.6190072,9.71350917 L15.194903,8.96420093 C15.0903001,8.84787135 14.9796011,8.73715074 14.8632644,8.63249262 L14.113842,9.20797034 C13.9496023,9.33408918 13.7246155,9.34591711 13.5480572,9.23771459 C13.2702604,9.06746884 12.967876,8.94158418 12.6497693,8.86496757 C12.4485124,8.81649447 12.2979381,8.64901279 12.2710749,8.44375113 L12.1484195,7.50653931 C11.991537,7.49786942 11.8361368,7.49782415 11.6793577,7.50638079 L11.5567532,8.44289481 C11.5298696,8.64824437 11.3791721,8.81576601 11.1778021,8.86415265 C10.8585431,8.94086648 10.5561764,9.06643469 10.278196,9.23655865 C10.1016576,9.34460016 9.87680077,9.33270318 9.7126488,9.20663602 L8.96297329,8.6308923 C8.84735885,8.73502853 8.73634879,8.84587893 8.63154579,8.96205405 L9.20706861,9.71087712 C9.33340742,9.87525882 9.34519512,10.1005561 9.23670026,10.2772244 C9.06588685,10.5553696 8.94000373,10.8578557 8.86332804,11.1772208 C8.81496943,11.3786412 8.64741924,11.5293863 8.44202638,11.5562663 L7.50608141,11.6787545 C7.49798466,11.8340231 7.49793534,11.9905103 7.50610196,12.1469306 L8.44202638,12.269416 C8.64741924,12.296296 8.81496943,12.4470411 8.86332804,12.6484616 C8.94000373,12.9678266 9.06588685,13.2703127 9.23670026,13.5484579 C9.34519512,13.7251263 9.33340742,13.9504235 9.20706861,14.1148052 L8.63152631,14.8636536 C8.73559874,14.9789925 8.84651573,15.0898494 8.96293642,15.1946884 L9.71254612,14.6186865 C9.87684786,14.4924367 10.1019959,14.4806079 10.2786223,14.5889462 C10.5561566,14.7591788 10.8583461,14.8847685 11.1778021,14.9615297 C11.3791646,15.0099145 11.5298592,15.1774257 11.5567504,15.3827665 L11.6793792,16.3191566 C11.8360878,16.3277906 11.9914805,16.3277877 12.1484211,16.3191303 L12.2710749,15.3819312 C12.2979381,15.1766695 12.4485124,15.0091878 12.6497693,14.9607147 C12.968073,14.8840507 13.2702817,14.758144 13.5476308,14.5877907 C13.7242769,14.4792911 13.9495551,14.4910506 14.1139447,14.6173522 L14.8632903,15.1930797 C14.9794883,15.088489 15.0901618,14.9777558 15.1948226,14.8613769 L14.6190072,14.1121731 Z" id="Stroke"></path>
        </g>
    </g>
</svg>