<?xml version="1.0" encoding="UTF-8"?>
<svg width="24px" height="24px" viewBox="0 0 24 24" version="1.1" xmlns="http://www.w3.org/2000/svg" xmlns:xlink="http://www.w3.org/1999/xlink">
    <!-- Generator: Sketch 45.1 (43504) - http://www.bohemiancoding.com/sketch -->
    <title>Mymoid-font/form_plus</title>
    <desc>Created with Sketch.</desc>
    <defs></defs>
    <g id="Export-Fonts" stroke="none" stroke-width="1" fill="none" fill-rule="evenodd">
        <g id="Mymoid-font/form_plus" fill-rule="nonzero" fill="#000000">
            <path d="M12.7534283,11.5 L12.7534283,8.5 C12.7534283,8.22385763 12.5295706,8 12.2534283,8 C11.9772859,8 11.7534283,8.22385763 11.7534283,8.5 L11.7534283,11.5 L8.75342826,11.5 C8.47728589,11.5 8.25342826,11.7238576 8.25342826,12 C8.25342826,12.2761424 8.47728589,12.5 8.75342826,12.5 L11.7534283,12.5 L11.7534283,15.5 C11.7534283,15.7761424 11.9772859,16 12.2534283,16 C12.5295706,16 12.7534283,15.7761424 12.7534283,15.5 L12.7534283,12.5 L15.7534283,12.5 C16.0295706,12.5 16.2534283,12.2761424 16.2534283,12 C16.2534283,11.7238576 16.0295706,11.5 15.7534283,11.5 L12.7534283,11.5 Z" id="Combined-Shape"></path>
        </g>
    </g>
</svg>