<?xml version="1.0" encoding="UTF-8"?>
<svg width="24px" height="24px" viewBox="0 0 24 24" version="1.1" xmlns="http://www.w3.org/2000/svg" xmlns:xlink="http://www.w3.org/1999/xlink">
    <!-- Generator: Sketch 45.1 (43504) - http://www.bohemiancoding.com/sketch -->
    <title>Mymoid-font/form_question_mark</title>
    <desc>Created with Sketch.</desc>
    <defs></defs>
    <g id="Export-Fonts" stroke="none" stroke-width="1" fill="none" fill-rule="evenodd">
        <g id="Mymoid-font/form_question_mark" fill-rule="nonzero" fill="#000000">
            <path d="M12.2958561,16.5354964 C12.2958561,16.8116387 12.0719984,17.0354964 11.7958561,17.0354964 C11.5197137,17.0354964 11.2958561,16.8116387 11.2958561,16.5354964 L11.2958561,16.1734964 C11.2958561,15.897354 11.5197137,15.6734964 11.7958561,15.6734964 C12.0719984,15.6734964 12.2958561,15.897354 12.2958561,16.1734964 L12.2958561,16.5354964 Z M12.3377249,14.3108678 C12.3377249,14.5870102 12.1138673,14.8108678 11.8377249,14.8108678 C11.5615826,14.8108678 11.3377249,14.5870102 11.3377249,14.3108678 L11.3377249,13.6553218 C11.3377249,12.8988163 11.8198264,12.1562054 12.4602326,11.8970529 C13.2491378,11.5778074 13.5231581,11.1554808 13.5231581,10.3480331 C13.5231581,9.60011173 12.8013902,8.96584186 11.8811199,8.96584186 C11.2697036,8.96584186 10.723818,9.25005958 10.4388162,9.68765442 C10.2881118,9.91904758 9.97836056,9.98445874 9.7469674,9.83375434 C9.51557424,9.68304994 9.45016308,9.37329866 9.60086748,9.1419055 C10.0739545,8.41552263 10.9376383,7.96584186 11.8811199,7.96584186 C13.3269853,7.96584186 14.5231581,9.01700571 14.5231581,10.3480331 C14.5231581,11.5561575 14.00856,12.3492685 12.8353514,12.8240297 C12.57915,12.9277064 12.3377249,13.2995885 12.3377249,13.6553218 L12.3377249,14.3108678 Z" id="Combined-Shape"></path>
        </g>
    </g>
</svg>