<?xml version="1.0" encoding="UTF-8"?>
<svg width="24px" height="24px" viewBox="0 0 24 24" version="1.1" xmlns="http://www.w3.org/2000/svg" xmlns:xlink="http://www.w3.org/1999/xlink">
    <!-- Generator: Sketch 45.1 (43504) - http://www.bohemiancoding.com/sketch -->
    <title>Mymoid-font/help</title>
    <desc>Created with Sketch.</desc>
    <defs></defs>
    <g id="Export-Fonts" stroke="none" stroke-width="1" fill="none" fill-rule="evenodd">
        <g id="Mymoid-font/help" fill="#000000">
            <path d="M10.761,17.617656 C11.16036,17.705976 11.57412,17.755896 12.00036,17.755896 C12.42564,17.755896 12.8394,17.705976 13.23876,17.617656 L13.71588,21.432696 C12.58212,21.638136 11.4186,21.638136 10.28388,21.432696 L10.761,17.617656 Z M6.66756,14.166456 C7.25316,15.598776 8.39748,16.743096 9.8298,17.328696 L9.34404,21.214776 C7.83012,20.781816 6.40164,19.973496 5.21124,18.784056 C4.0218,17.593656 3.21348,16.166136 2.78052,14.652216 L6.66756,14.166456 Z M9.34404,2.77605601 L9.8298,6.66309601 C8.39748,7.24869601 7.25316,8.39301601 6.66756,9.82533601 L2.78052,9.33957601 C3.21348,7.82565601 4.0218,6.39813601 5.2122,5.20773601 C6.4026,4.01733601 7.83012,3.20997601 9.34404,2.77605601 Z M13.71588,2.55909601 L13.23876,6.37317601 C12.8394,6.28581601 12.42564,6.23589601 12.00036,6.23589601 C11.57412,6.23589601 11.16036,6.28581601 10.761,6.37317601 L10.28388,2.55909601 C10.85124,2.45637601 11.42532,2.40069601 12.00036,2.40069601 C12.57444,2.40069601 13.14852,2.45637601 13.71588,2.55909601 Z M17.3322,9.82533601 C16.7466,8.39301601 15.60324,7.24869601 14.16996,6.66309601 L14.65668,2.77605601 C16.16964,3.20997601 17.59812,4.01733601 18.78852,5.20773601 C19.97892,6.39813601 20.78628,7.82565601 21.2202,9.33957601 L17.3322,9.82533601 Z M14.65668,21.215736 L14.16996,17.328696 C15.60324,16.743096 16.7466,15.598776 17.3322,14.166456 L21.2202,14.652216 C20.78628,16.166136 19.97796,17.593656 18.78756,18.784056 C17.59812,19.974456 16.16964,20.782776 14.65668,21.215736 Z M21.43716,10.280376 C21.64164,11.414136 21.64164,12.576696 21.43716,13.711416 L17.62212,13.235256 C17.71044,12.834936 17.76036,12.421176 17.76036,11.995896 C17.76036,11.570616 17.71044,11.155896 17.62212,10.756536 L21.43716,10.280376 Z M6.37764,10.756536 C6.28932,11.156856 6.24036,11.570616 6.24036,11.995896 C6.24036,12.421176 6.28932,12.835896 6.37764,13.235256 L2.5626,13.711416 C2.35812,12.576696 2.35812,11.414136 2.5626,10.280376 L6.37764,10.756536 Z M12.00036,7.19589601 C14.64612,7.19589601 16.80036,9.34917601 16.80036,11.995896 C16.80036,14.642616 14.64612,16.795896 12.00036,16.795896 C9.35364,16.795896 7.20036,14.642616 7.20036,11.995896 C7.20036,9.34917601 9.35364,7.19589601 12.00036,7.19589601 Z M22.2522,14.465016 C22.27812,14.415096 22.29636,14.362296 22.30404,14.302776 C22.62756,12.770616 22.62756,11.221176 22.30116,9.72645601 C22.29732,9.64101601 22.27812,9.59877601 22.25988,9.55653601 C21.82404,7.71333601 20.90148,5.96325601 19.46724,4.52901601 C18.03108,3.09285601 16.27908,2.16933601 14.43396,1.73445601 C14.39364,1.71717601 14.35332,1.69797601 14.3082,1.69317601 C12.79812,1.37253601 11.27172,1.36677601 9.79716,1.67877601 C9.76164,1.67589601 9.54372,1.71333601 9.48324,1.75461601 C7.66884,2.19813601 5.94756,3.11397601 4.53348,4.52901601 C3.1002,5.96229601 2.17764,7.71045601 1.7418,9.55173601 C1.7226,9.59493601 1.70244,9.63909601 1.69668,9.68901601 C1.3722,11.221176 1.3722,12.772536 1.69956,14.267256 C1.70148,14.336376 1.71588,14.366136 1.72644,14.395896 C1.73028,14.446776 1.73412,14.493816 1.7562,14.538936 C2.21796,16.357176 3.13092,18.061176 4.53252,19.462776 C5.9658,20.896056 7.71492,21.818616 9.5562,22.253496 C9.5994,22.273656 9.6426,22.292856 9.69156,22.299576 C9.753,22.303416 9.75396,22.302456 9.75588,22.302456 C10.49508,22.462776 11.24676,22.551096 12.00036,22.551096 C12.75396,22.551096 13.5066,22.461816 14.24676,22.302456 C14.35332,22.292856 14.39364,22.274616 14.43396,22.256376 C16.27908,21.822456 18.03108,20.898936 19.46628,19.462776 C20.8938,18.036216 21.81348,16.296696 22.2522,14.465016 Z" id="Fill-2796"></path>
            <path d="M7.32530674,1.21903485 C7.37330674,1.23919485 7.43090674,1.24783485 7.47890674,1.24783485 C7.68050674,1.24783485 7.86290674,1.12303485 7.93010674,0.921434852 C8.01650674,0.672794852 7.89170674,0.394394852 7.63250674,0.307034852 C7.38290674,0.220634852 7.11410674,0.355994852 7.02770674,0.604634852 C6.94130674,0.863834852 7.07570674,1.13263485 7.32530674,1.21903485" id="Fill-2797"></path>
            <path d="M3.62921074,1.41122685 C3.69641074,1.41122685 3.76361074,1.39202685 3.82121074,1.36322685 C4.06121074,1.25762685 4.17641074,0.979226852 4.07081074,0.729626852 C3.96521074,0.489626852 3.67721074,0.384026852 3.43721074,0.489626852 C3.19721074,0.595226852 3.08201074,0.883226852 3.18761074,1.12322685 C3.27401074,1.29602685 3.44681074,1.41122685 3.62921074,1.41122685" id="Fill-2798"></path>
            <path d="M5.55900274,0.960314852 C5.82780274,0.950714852 6.02940274,0.729914852 6.01980274,0.460154852 C6.01020274,0.201914852 5.77980274,-0.00928514806 5.52060274,0.00031485194 C5.25180274,0.0195148519 5.05020274,0.240314852 5.05980274,0.499514852 C5.06940274,0.768314852 5.29020274,0.969914852 5.55900274,0.960314852" id="Fill-2799"></path>
            <path d="M2.01621874,2.51561085 C2.14101874,2.51561085 2.25621874,2.46665085 2.35221874,2.38025085 C2.54421874,2.18921085 2.54421874,1.88201085 2.35221874,1.69865085 C2.16021874,1.50665085 1.86261874,1.51721085 1.67061874,1.69865085 C1.48821874,1.89161085 1.48821874,2.18921085 1.67061874,2.38025085 C1.76661874,2.46665085 1.89141874,2.51561085 2.01621874,2.51561085" id="Fill-2800"></path>
            <path d="M0.720602741,4.09903485 C0.787802741,4.12783485 0.855002741,4.13743485 0.912602741,4.13743485 C1.09500274,4.13743485 1.27740274,4.03279485 1.35420274,3.84943485 C1.45980274,3.60943485 1.34460274,3.32143485 1.10460274,3.22543485 C0.864602741,3.11983485 0.576602741,3.22543485 0.471002741,3.47599485 C0.365402741,3.71599485 0.480602741,3.99439485 0.720602741,4.09903485" id="Fill-2801"></path>
            <path d="M0.470714741,6.05743485 L0.480314741,6.05743485 C0.739514741,6.05743485 0.950714741,5.84623485 0.960314741,5.58703485 C0.969914741,5.32783485 0.768314741,5.10703485 0.499514741,5.09743485 C0.230714741,5.08783485 0.00991474068,5.28943485 0.000314740681,5.55823485 C-0.00928525932,5.81743485 0.201914741,6.04783485 0.470714741,6.05743485" id="Fill-2802"></path>
            <path d="M1.22921074,7.35401085 C1.14281074,7.10345085 0.864410741,6.97001085 0.624410741,7.06505085 C0.365210741,7.15241085 0.240410741,7.42025085 0.326810741,7.68041085 L0.326810741,7.67081085 C0.394010741,7.87241085 0.586010741,7.99721085 0.778010741,7.99721085 C0.835610741,7.99721085 0.883610741,7.98665085 0.941210741,7.96841085 C1.19081074,7.88201085 1.31561074,7.60361085 1.22921074,7.35401085" id="Fill-2803"></path>
            <path d="M18.4121972,0.960314741 L18.4313972,0.960314741 C18.6809972,0.960314741 18.9017972,0.758714741 18.9113972,0.499514741 C18.9209972,0.230714741 18.7097972,0.00991474068 18.4409972,0.000314740681 C18.1817972,-0.00928525932 17.9609972,0.201914741 17.9513972,0.470714741 C17.9417972,0.729914741 18.1433972,0.950714741 18.4121972,0.960314741" id="Fill-2804"></path>
            <path d="M20.1497972,1.35401074 C20.2169972,1.38185074 20.2745972,1.39241074 20.3417972,1.39241074 C20.5241972,1.39241074 20.7065972,1.28681074 20.7833972,1.10345074 C20.8889972,0.863450741 20.7737972,0.575450741 20.5337972,0.470810741 C20.2937972,0.365210741 20.0057972,0.480410741 19.9001972,0.720410741 C19.7945972,0.970010741 19.9097972,1.24841074 20.1497972,1.35401074" id="Fill-2805"></path>
            <path d="M21.9643892,2.49593074 C22.0891892,2.49593074 22.2139892,2.44793074 22.3099892,2.36153074 C22.4923892,2.16953074 22.4923892,1.86233074 22.3003892,1.67993074 C22.1179892,1.48793074 21.8107892,1.49753074 21.6283892,1.67993074 C21.4363892,1.86233074 21.4363892,2.16953074 21.6283892,2.36153074 C21.7243892,2.44793074 21.8395892,2.49593074 21.9643892,2.49593074" id="Fill-2806"></path>
            <path d="M23.0396852,5.56812274 C23.0492852,5.82732274 23.2604852,6.02892274 23.5196852,6.02892274 L23.5388852,6.02892274 C23.7980852,6.01932274 24.0092852,5.79852274 23.9996852,5.52972274 C23.9804852,5.26092274 23.7596852,5.05932274 23.5004852,5.06892274 C23.2316852,5.07852274 23.0300852,5.29932274 23.0396852,5.56812274" id="Fill-2807"></path>
            <path d="M16.4921972,1.25743474 C16.5401972,1.25743474 16.5977972,1.24783474 16.6457972,1.22959474 C16.8953972,1.14223474 17.0297972,0.863834741 16.9433972,0.614234741 C16.8569972,0.364634741 16.5785972,0.239834741 16.3289972,0.326234741 C16.0793972,0.412634741 15.9449972,0.681434741 16.0313972,0.940634741 C16.0985972,1.13263474 16.2905972,1.25743474 16.4921972,1.25743474" id="Fill-2808"></path>
            <path d="M23.0780852,4.11871474 C23.1356852,4.11871474 23.2028852,4.09855474 23.2700852,4.07071474 C23.5100852,3.96511474 23.6252852,3.68671474 23.5100852,3.44671474 L23.5196852,3.44671474 C23.4044852,3.19711474 23.1260852,3.09151474 22.8860852,3.19711474 C22.6364852,3.30175474 22.5308852,3.59071474 22.6364852,3.83071474 C22.7132852,4.01311474 22.8860852,4.11871474 23.0780852,4.11871474" id="Fill-2809"></path>
            <path d="M23.3851892,7.03711474 C23.1355892,6.95071474 22.8571892,7.08511474 22.7803892,7.33471474 L22.7707892,7.33471474 C22.6843892,7.58335474 22.8187892,7.85311474 23.0683892,7.93855474 C23.1259892,7.95871474 23.1739892,7.96831474 23.2315892,7.96831474 C23.4235892,7.96831474 23.6155892,7.84351474 23.6827892,7.65151474 C23.7691892,7.39231474 23.6347892,7.12351474 23.3851892,7.03711474" id="Fill-2810"></path>
            <path d="M23.280192,19.900032 C23.030592,19.795392 22.752192,19.910592 22.646592,20.150592 C22.540992,20.390592 22.646592,20.678592 22.896192,20.783232 C22.953792,20.812032 23.020992,20.821632 23.088192,20.821632 C23.270592,20.821632 23.443392,20.716992 23.520192,20.533632 C23.625792,20.293632 23.520192,20.005632 23.280192,19.900032" id="Fill-2811"></path>
            <path d="M16.665696,22.77072 C16.416096,22.68432 16.147296,22.81872 16.051296,23.06928 C15.964896,23.31792 16.099296,23.59632 16.348896,23.68272 C16.406496,23.70192 16.454496,23.71152 16.512096,23.71152 C16.704096,23.71152 16.896096,23.58672 16.963296,23.38512 C17.049696,23.13552 16.915296,22.85712 16.665696,22.77072" id="Fill-2812"></path>
            <path d="M21.638592,21.6288 C21.456192,21.81024 21.456192,22.1184 21.638592,22.29984 C21.734592,22.3968 21.859392,22.4448 21.984192,22.4448 C22.108992,22.4448 22.224192,22.3968 22.320192,22.29984 C22.512192,22.1184 22.502592,21.81024 22.320192,21.6288 C22.128192,21.4368 21.830592,21.4368 21.638592,21.6288" id="Fill-2813"></path>
            <path d="M23.5296,17.952 C23.2704,17.94144 23.0496,18.14304 23.04,18.41184 C23.0304,18.6816 23.232,18.90144 23.5008,18.912 L23.52,18.912 C23.7696,18.912 23.9904,18.69984 24,18.4512 C24,18.18144 23.7984,17.9616 23.5296,17.952" id="Fill-2814"></path>
            <path d="M23.0688,16.032 C22.8192,16.128 22.6848,16.3968 22.7712,16.6464 C22.8384,16.848 23.0208,16.97184 23.2224,16.97184 C23.2704,16.97184 23.328,16.9632 23.376,16.94304 C23.6256,16.85664 23.76,16.57824 23.6736,16.3296 C23.5872,16.08 23.3184,15.94464 23.0688,16.032" id="Fill-2815"></path>
            <path d="M18.431904,23.0304 C18.163104,23.0496 17.961504,23.2704 17.971104,23.53824 C17.980704,23.7888 18.191904,24 18.451104,24 L18.470304,24 C18.739104,23.97984 18.940704,23.76 18.931104,23.49984 C18.921504,23.232 18.700704,23.01984 18.431904,23.0304" id="Fill-2816"></path>
            <path d="M20.1696,22.636608 C19.9296,22.741248 19.8144,23.030208 19.92,23.270208 C20.0064,23.452608 20.1792,23.558208 20.3616,23.558208 C20.4288,23.558208 20.496,23.538048 20.5536,23.519808 L20.5536,23.510208 C20.7936,23.404608 20.9088,23.126208 20.8032,22.886208 C20.6976,22.636608 20.4096,22.531008 20.1696,22.636608" id="Fill-2817"></path>
            <path d="M5.59801353,23.04 C5.32921353,23.0304 5.10841353,23.232 5.09881353,23.49984 C5.08921353,23.7696 5.30041353,23.9904 5.55961353,24 L5.57881353,24 C5.83801353,24 6.04921353,23.7888 6.05881353,23.5296 C6.06841353,23.2704 5.85721353,23.0496 5.59801353,23.04" id="Fill-2818"></path>
            <path d="M3.86041353,22.655616 C3.62041353,22.550976 3.33241353,22.655616 3.22681353,22.905216 C3.12121353,23.145216 3.23641353,23.434176 3.48601353,23.538816 C3.54361353,23.558016 3.61081353,23.577216 3.66841353,23.577216 C3.86041353,23.577216 4.03321353,23.462016 4.11001353,23.279616 C4.21561353,23.039616 4.10041353,22.761216 3.86041353,22.655616" id="Fill-2819"></path>
            <path d="M7.35490953,22.770912 C7.09570953,22.857312 6.97090953,23.126112 7.05730953,23.375712 C7.12450953,23.577312 7.31650953,23.702112 7.50850953,23.702112 C7.56610953,23.702112 7.61410953,23.692512 7.67170953,23.673312 C7.92130953,23.586912 8.05570953,23.309472 7.95970953,23.058912 C7.87330953,22.809312 7.60450953,22.674912 7.35490953,22.770912" id="Fill-2820"></path>
            <path d="M1.71020553,21.666528 C1.51820553,21.858528 1.52780553,22.157088 1.71020553,22.349088 C1.80620553,22.435488 1.93100553,22.483488 2.04620553,22.483488 C2.17100553,22.483488 2.29580553,22.435488 2.39180553,22.338528 C2.57420553,22.146528 2.57420553,21.848928 2.39180553,21.656928 C2.19980553,21.475488 1.89260553,21.475488 1.71020553,21.666528" id="Fill-2821"></path>
            <path d="M0.740413532,19.9584 C0.490813532,20.0736 0.385213532,20.352 0.490813532,20.6016 C0.577213532,20.7744 0.750013532,20.88 0.932413532,20.88 C0.999613532,20.88 1.06681353,20.8704 1.13401353,20.8416 C1.37401353,20.7264 1.47961353,20.448 1.37401353,20.208 C1.25881353,19.9584 0.980413532,19.8528 0.740413532,19.9584" id="Fill-2822"></path>
            <path d="M0.289501532,16.415616 C0.203101532,16.665216 0.337501532,16.934016 0.587101532,17.020416 C0.644701532,17.039616 0.692701532,17.039616 0.740701532,17.039616 C0.942301532,17.039616 1.13430153,16.915776 1.20150153,16.714176 C1.27830153,16.463616 1.14390153,16.195776 0.894301532,16.109376 C0.644701532,16.022016 0.366301532,16.156416 0.289501532,16.415616" id="Fill-2823"></path>
            <path d="M0.500413532,18.97872 C0.769213532,18.96912 0.970813532,18.73872 0.961213532,18.47952 C0.942013532,18.21072 0.721213532,18.00912 0.452413532,18.01872 C0.193213532,18.02928 -0.0179864679,18.25872 0.00121353207,18.52752 C0.0108135321,18.77712 0.222013532,18.97872 0.481213532,18.97872 L0.500413532,18.97872 Z" id="Fill-2824"></path>
        </g>
    </g>
</svg>