<?xml version="1.0" encoding="UTF-8"?>
<svg width="24px" height="24px" viewBox="0 0 24 24" version="1.1" xmlns="http://www.w3.org/2000/svg" xmlns:xlink="http://www.w3.org/1999/xlink">
    <!-- Generator: Sketch 45.1 (43504) - http://www.bohemiancoding.com/sketch -->
    <title>Mymoid-font/info</title>
    <desc>Created with Sketch.</desc>
    <defs></defs>
    <g id="Export-Fonts" stroke="none" stroke-width="1" fill="none" fill-rule="evenodd">
        <g id="Mymoid-font/info" fill-rule="nonzero" fill="#000000">
            <path d="M11.99951,0.06543 L11.99902,0.06543 C11.99853,0.06543 11.99853,0.06543 11.99804,0.06543 C8.81445,0.06543 5.82079,1.30518 3.56933,3.55664 C1.31787,5.8081 0.07763,8.80176 0.07763,11.98633 C0.07763,15.1709 1.31738,18.16406 3.56884,20.41602 C5.8203,22.667 8.81396,23.90723 11.99804,23.90723 C11.99853,23.90723 11.99902,23.90723 11.99999,23.90723 C15.18358,23.90723 18.17675,22.667 20.42772,20.41602 C22.67967,18.16504 23.91991,15.1709 23.91991,11.98584 C23.91309,5.41992 18.56543,0.07275 11.99951,0.06543 Z M19.7207,19.70898 C17.6582,21.77148 14.91601,22.90722 12,22.90722 C11.99902,22.90722 11.99854,22.90722 11.99805,22.90722 C9.08106,22.90722 6.33838,21.77148 4.27588,19.70898 C2.21338,17.6455 1.07764,14.90332 1.07764,11.98632 C1.07764,9.06884 2.21387,6.32665 4.27637,4.26366 C6.33936,2.20116 9.08106,1.06542 11.99805,1.06542 L11.99854,1.06542 C18.01368,1.07177 22.91309,5.97167 22.91993,11.98681 C22.91992,14.9043 21.78418,17.64648 19.7207,19.70898 Z" id="Shape"></path>
            <path d="M11.95947,7 L12.01367,7 C12.29004,7 12.48633,6.77637 12.48633,6.5 C12.48633,6.22363 12.23584,6 11.95947,6 C11.6831,6 11.45947,6.22363 11.45947,6.5 C11.45947,6.77637 11.68311,7 11.95947,7 Z" id="Shape"></path>
            <path d="M13.01367,17 L12.51416,17 L12.51416,9.5 C12.51416,9.22363 12.29053,9 12.01416,9 L11.01416,9 C10.73779,9 10.51416,9.22363 10.51416,9.5 C10.51416,9.77637 10.73779,10 11.01416,10 L11.51416,10 L11.51416,17 L11.01367,17 C10.7373,17 10.51367,17.22363 10.51367,17.5 C10.51367,17.77637 10.7373,18 11.01367,18 L13.01367,18 C13.29004,18 13.51367,17.77637 13.51367,17.5 C13.51367,17.22363 13.29004,17 13.01367,17 Z" id="Shape"></path>
        </g>
    </g>
</svg>