<?xml version="1.0" encoding="UTF-8"?>
<svg width="24px" height="24px" viewBox="0 0 24 24" version="1.1" xmlns="http://www.w3.org/2000/svg" xmlns:xlink="http://www.w3.org/1999/xlink">
    <!-- Generator: Sketch 45.1 (43504) - http://www.bohemiancoding.com/sketch -->
    <title>Mymoid-font/legal</title>
    <desc>Created with Sketch.</desc>
    <defs></defs>
    <g id="Export-Fonts" stroke="none" stroke-width="1" fill="none" fill-rule="evenodd">
        <g id="Mymoid-font/legal" fill-rule="nonzero" fill="#000000">
            <path d="M23.484,15.492 C23.483,15.463 23.473,15.434 23.466,15.405 C23.458,15.368 23.453,15.331 23.437,15.298 C23.435,15.294 23.436,15.29 23.434,15.286 L18.942,6.274 C18.937,6.264 18.926,6.26 18.92,6.25 C18.885,6.19 18.839,6.141 18.784,6.1 C18.766,6.087 18.75,6.075 18.731,6.064 C18.661,6.026 18.584,5.998 18.499,5.998 C18.498,5.998 18.497,5.997 18.497,5.997 C18.496,5.997 18.496,5.997 18.496,5.997 L12.493,5.997 L12.493,4.744 C12.493,4.468 12.269,4.244 11.993,4.244 C11.717,4.244 11.493,4.468 11.493,4.744 L11.493,5.997 L5.495,5.997 L5.495,5.997 C5.408,5.997 5.33,6.025 5.259,6.064 C5.24,6.074 5.225,6.086 5.207,6.099 C5.151,6.14 5.105,6.189 5.07,6.249 C5.064,6.259 5.053,6.263 5.048,6.273 L0.528,15.284 C0.526,15.288 0.526,15.293 0.524,15.298 C0.509,15.329 0.504,15.365 0.496,15.399 C0.489,15.43 0.478,15.461 0.477,15.492 C0.477,15.497 0.474,15.502 0.474,15.507 C0.474,17.976 2.72,19.984 5.479,19.984 C8.239,19.984 10.485,17.976 10.485,15.507 C10.485,15.502 10.482,15.498 10.482,15.492 C10.481,15.461 10.471,15.432 10.464,15.402 C10.456,15.366 10.451,15.33 10.436,15.297 C10.434,15.293 10.435,15.289 10.433,15.285 L6.302,6.997 L11.492,6.997 L11.492,9.347 C11.492,9.623 11.716,9.847 11.992,9.847 C12.268,9.847 12.492,9.623 12.492,9.347 L12.492,6.997 L17.685,6.997 L13.529,15.284 C13.527,15.289 13.527,15.294 13.525,15.299 C13.511,15.329 13.507,15.363 13.499,15.397 C13.492,15.429 13.481,15.46 13.48,15.492 C13.48,15.497 13.477,15.502 13.477,15.508 C13.477,17.977 15.723,19.985 18.483,19.985 C21.243,19.985 23.489,17.977 23.489,15.508 C23.487,15.502 23.484,15.498 23.484,15.492 Z M5.493,7.615 L9.178,15.007 L1.785,15.007 L5.493,7.615 Z M5.48,18.984 C3.467,18.984 1.796,17.688 1.516,16.007 L9.444,16.007 C9.165,17.688 7.493,18.984 5.48,18.984 Z M22.179,15.008 L14.786,15.008 L18.493,7.616 L22.179,15.008 Z M18.481,18.984 C16.467,18.984 14.796,17.688 14.516,16.007 L22.446,16.007 C22.166,17.688 20.495,18.984 18.481,18.984 Z" id="Shape"></path>
        </g>
    </g>
</svg>