<?xml version="1.0" encoding="UTF-8"?>
<svg width="24px" height="24px" viewBox="0 0 24 24" version="1.1" xmlns="http://www.w3.org/2000/svg" xmlns:xlink="http://www.w3.org/1999/xlink">
    <!-- Generator: Sketch 45.1 (43504) - http://www.bohemiancoding.com/sketch -->
    <title>Mymoid-font/logout</title>
    <desc>Created with Sketch.</desc>
    <defs></defs>
    <g id="Export-Fonts" stroke="none" stroke-width="1" fill="none" fill-rule="evenodd">
        <g id="Mymoid-font/logout" fill-rule="nonzero" fill="#000000">
            <path d="M17,18.2173913 L17,21.0869565 C17,21.8506548 16.2529951,22.5 15.3,22.5 L3.2,22.5 C2.24700488,22.5 1.5,21.8506548 1.5,21.0869565 L1.5,2.91304348 C1.5,2.14992757 2.24741671,1.5 3.2,1.5 L15.3,1.5 C16.2525833,1.5 17,2.14992757 17,2.91304348 L17,6.73913043 C17,7.01527281 17.2238576,7.23913043 17.5,7.23913043 C17.7761424,7.23913043 18,7.01527281 18,6.73913043 L18,2.91304348 C18,1.56415938 16.7762167,0.5 15.3,0.5 L3.2,0.5 C1.72378329,0.5 0.5,1.56415938 0.5,2.91304348 L0.5,21.0869565 C0.5,22.4365107 1.72343519,23.5 3.2,23.5 L15.3,23.5 C16.7765648,23.5 18,22.4365107 18,21.0869565 L18,18.2173913 C18,17.9412489 17.7761424,17.7173913 17.5,17.7173913 C17.2238576,17.7173913 17,17.9412489 17,18.2173913 Z" id="Stroke"></path>
            <path d="M22.2641,11.5 L8.15,11.5 C7.87385763,11.5 7.65,11.7238576 7.65,12 C7.65,12.2761424 7.87385763,12.5 8.15,12.5 L22.2641,12.5 C22.5402424,12.5 22.7641,12.2761424 22.7641,12 C22.7641,11.7238576 22.5402424,11.5 22.2641,11.5 Z" id="Stroke"></path>
            <path d="M18.7964466,15.2874466 C18.6011845,15.4827088 18.6011845,15.7992912 18.7964466,15.9945534 C18.9917088,16.1898155 19.3082912,16.1898155 19.5035534,15.9945534 L23.1445534,12.3535534 C23.3398155,12.1582912 23.3398155,11.8417088 23.1445534,11.6464466 L19.5035534,8.00544661 C19.3082912,7.81018446 18.9917088,7.81018446 18.7964466,8.00544661 C18.6011845,8.20070876 18.6011845,8.51729124 18.7964466,8.71255339 L22.0838932,12 L18.7964466,15.2874466 Z" id="Stroke"></path>
        </g>
    </g>
</svg>