<?xml version="1.0" encoding="UTF-8"?>
<svg width="24px" height="24px" viewBox="0 0 24 24" version="1.1" xmlns="http://www.w3.org/2000/svg" xmlns:xlink="http://www.w3.org/1999/xlink">
    <!-- Generator: Sketch 45.1 (43504) - http://www.bohemiancoding.com/sketch -->
    <title>Mymoid-font/menu_collapsed</title>
    <desc>Created with Sketch.</desc>
    <defs></defs>
    <g id="Export-Fonts" stroke="none" stroke-width="1" fill="none" fill-rule="evenodd">
        <g id="Mymoid-font/menu_collapsed" fill-rule="nonzero" fill="#000000">
            <path d="M10.25,1 C9.97385763,1 9.75,1.22385763 9.75,1.5 L9.75,5 C9.75,5.27614237 9.97385763,5.5 10.25,5.5 L13.75,5.5 C14.0261424,5.5 14.25,5.27614237 14.25,5 L14.25,1.5 C14.25,1.22385763 14.0261424,1 13.75,1 L10.25,1 Z M10.25,0 L13.75,0 C14.5784271,-1.66533454e-16 15.25,0.671572875 15.25,1.5 L15.25,5 C15.25,5.82842712 14.5784271,6.5 13.75,6.5 L10.25,6.5 C9.42157288,6.5 8.75,5.82842712 8.75,5 L8.75,1.5 C8.75,0.671572875 9.42157288,1.66533454e-16 10.25,0 Z" id="Stroke"></path>
            <path d="M10.25,9.75 C9.97385763,9.75 9.75,9.97385763 9.75,10.25 L9.75,13.75 C9.75,14.0261424 9.97385763,14.25 10.25,14.25 L13.75,14.25 C14.0261424,14.25 14.25,14.0261424 14.25,13.75 L14.25,10.25 C14.25,9.97385763 14.0261424,9.75 13.75,9.75 L10.25,9.75 Z M10.25,8.75 L13.75,8.75 C14.5784271,8.75 15.25,9.42157288 15.25,10.25 L15.25,13.75 C15.25,14.5784271 14.5784271,15.25 13.75,15.25 L10.25,15.25 C9.42157288,15.25 8.75,14.5784271 8.75,13.75 L8.75,10.25 C8.75,9.42157288 9.42157288,8.75 10.25,8.75 Z" id="Stroke"></path>
            <path d="M10.25,18.5 C9.97385763,18.5 9.75,18.7238576 9.75,19 L9.75,22.5 C9.75,22.7761424 9.97385763,23 10.25,23 L13.75,23 C14.0261424,23 14.25,22.7761424 14.25,22.5 L14.25,19 C14.25,18.7238576 14.0261424,18.5 13.75,18.5 L10.25,18.5 Z M10.25,17.5 L13.75,17.5 C14.5784271,17.5 15.25,18.1715729 15.25,19 L15.25,22.5 C15.25,23.3284271 14.5784271,24 13.75,24 L10.25,24 C9.42157288,24 8.75,23.3284271 8.75,22.5 L8.75,19 C8.75,18.1715729 9.42157288,17.5 10.25,17.5 Z" id="Stroke"></path>
        </g>
    </g>
</svg>