<?xml version="1.0" encoding="UTF-8"?>
<svg width="24px" height="24px" viewBox="0 0 24 24" version="1.1" xmlns="http://www.w3.org/2000/svg" xmlns:xlink="http://www.w3.org/1999/xlink">
    <!-- Generator: Sketch 45.1 (43504) - http://www.bohemiancoding.com/sketch -->
    <title>Mymoid-font/merchant_info</title>
    <desc>Created with Sketch.</desc>
    <defs></defs>
    <g id="Export-Fonts" stroke="none" stroke-width="1" fill="none" fill-rule="evenodd">
        <g id="Mymoid-font/merchant_info" fill-rule="nonzero" fill="#000000">
            <path d="M16.142875,16.453575 L7.873625,16.453575 C7.59748263,16.453575 7.373625,16.6774326 7.373625,16.953575 C7.373625,17.2297174 7.59748263,17.453575 7.873625,17.453575 L16.142875,17.453575 C16.4190174,17.453575 16.642875,17.2297174 16.642875,16.953575 C16.642875,16.6774326 16.4190174,16.453575 16.142875,16.453575 Z" id="Stroke"></path>
            <path d="M15.2262083,18.2869083 L8.79029167,18.2869083 C8.51414929,18.2869083 8.29029167,18.510766 8.29029167,18.7869083 C8.29029167,19.0630507 8.51414929,19.2869083 8.79029167,19.2869083 L15.2262083,19.2869083 C15.5023507,19.2869083 15.7262083,19.0630507 15.7262083,18.7869083 C15.7262083,18.510766 15.5023507,18.2869083 15.2262083,18.2869083 Z" id="Stroke"></path>
            <path d="M17.9583333,21.9357 C18.1887137,21.9357 18.375,21.749285 18.375,21.5190333 L18.375,2.26903333 C18.375,2.03878166 18.1887137,1.85236667 17.9583333,1.85236667 L6.04166667,1.85236667 C5.81128626,1.85236667 5.625,2.03878166 5.625,2.26903333 L5.625,21.5190333 C5.625,21.749285 5.81128626,21.9357 6.04166667,21.9357 L17.9583333,21.9357 Z M17.9583333,22.9357 L6.04166667,22.9357 C5.2588468,22.9357 4.625,22.3014152 4.625,21.5190333 L4.625,2.26903333 C4.625,1.48665151 5.2588468,0.852366667 6.04166667,0.852366667 L17.9583333,0.852366667 C18.7411532,0.852366667 19.375,1.48665151 19.375,2.26903333 L19.375,21.5190333 C19.375,22.3014152 18.7411532,22.9357 17.9583333,22.9357 Z" id="Stroke"></path>
            <path d="M3.29166667,20.1023667 L2.375,20.1023667 C2.14461959,20.1023667 1.95833333,19.9159517 1.95833333,19.6857 L1.95833333,4.10236667 C1.95833333,3.872115 2.14461959,3.6857 2.375,3.6857 L3.29166667,3.6857 C3.56780904,3.6857 3.79166667,3.46184237 3.79166667,3.1857 C3.79166667,2.90955763 3.56780904,2.6857 3.29166667,2.6857 L2.375,2.6857 C1.59218013,2.6857 0.958333333,3.31998484 0.958333333,4.10236667 L0.958333333,19.6857 C0.958333333,20.4680818 1.59218013,21.1023667 2.375,21.1023667 L3.29166667,21.1023667 C3.56780904,21.1023667 3.79166667,20.878509 3.79166667,20.6023667 C3.79166667,20.3262243 3.56780904,20.1023667 3.29166667,20.1023667 Z" id="Stroke"></path>
            <path d="M20.7083333,21.1023667 L21.625,21.1023667 C22.4078199,21.1023667 23.0416667,20.4680818 23.0416667,19.6857 L23.0416667,4.10236667 C23.0416667,3.31998484 22.4078199,2.6857 21.625,2.6857 L20.7083333,2.6857 C20.432191,2.6857 20.2083333,2.90955763 20.2083333,3.1857 C20.2083333,3.46184237 20.432191,3.6857 20.7083333,3.6857 L21.625,3.6857 C21.8553804,3.6857 22.0416667,3.872115 22.0416667,4.10236667 L22.0416667,19.6857 C22.0416667,19.9159517 21.8553804,20.1023667 21.625,20.1023667 L20.7083333,20.1023667 C20.432191,20.1023667 20.2083333,20.3262243 20.2083333,20.6023667 C20.2083333,20.878509 20.432191,21.1023667 20.7083333,21.1023667 Z" id="Stroke"></path>
            <path d="M8.79638901,9.28581965 C7.97046958,9.18885857 7.375,8.45494036 7.375,7.41666667 L7.42258398,7.20378231 L8.50092773,4.91211564 C8.58339346,4.73686173 8.75965707,4.625 8.95334375,4.625 L14.6320938,4.625 C14.8256473,4.625 15.0018148,4.73670973 15.0843528,4.91178243 L16.1647592,7.20344909 L16.2125002,7.41666667 C16.2125002,8.49537286 15.617536,9.24207656 14.7794541,9.32059765 C14.3888138,9.35719731 14.0251184,9.23684911 13.7508066,9.00369922 C13.4896548,9.22311073 13.1471167,9.34668565 12.7732183,9.34652162 C12.3985563,9.34635726 12.0553579,9.22197251 11.7940333,9.00150789 C11.5325568,9.22228777 11.1889846,9.34668619 10.8138432,9.34652162 C10.4367221,9.34635618 10.0914789,9.22033432 9.8295231,8.99715432 C9.55322258,9.22195911 9.18786811,9.33177842 8.79638901,9.28581965 Z M9.2706575,5.625 L8.37803125,7.5219849 C8.40642849,8.00340624 8.63106509,8.25954346 8.91298603,8.29264035 C9.15806651,8.32141225 9.33437504,8.17289923 9.33437504,7.875 C9.33437504,7.20833333 10.334375,7.20833333 10.334375,7.875 C10.334375,8.1772364 10.5262466,8.34639536 10.8142819,8.34652172 C11.1022205,8.34664803 11.2937501,8.17784658 11.2937501,7.875 C11.2937501,7.20833333 12.2937501,7.20833333 12.2937501,7.875 C12.2937501,8.1772364 12.4856216,8.34639536 12.773657,8.34652172 C13.0615956,8.34664803 13.2531251,8.17784658 13.2531251,7.875 C13.2531251,7.20833333 14.2531251,7.20833333 14.2531251,7.875 C14.2531251,8.18127333 14.4422274,8.34781345 14.6861712,8.32495801 C14.9615642,8.29915605 15.1833465,8.0406844 15.2098459,7.52299025 L14.3150383,5.625 L9.2706575,5.625 Z" id="Stroke"></path>
            <path d="M9.29166667,11.9798584 L9.29166667,9.25553442 C9.29166667,8.97939204 9.06780904,8.75553442 8.79166667,8.75553442 C8.51552429,8.75553442 8.29166667,8.97939204 8.29166667,9.25553442 L8.29166667,12.4798584 C8.29166667,12.7560008 8.51552429,12.9798584 8.79166667,12.9798584 L14.9667301,12.9798584 C15.2428725,12.9798584 15.4667301,12.7560008 15.4667301,12.4798584 L15.4667301,9.25 C15.4667301,8.97385763 15.2428725,8.75 14.9667301,8.75 C14.6905877,8.75 14.4667301,8.97385763 14.4667301,9.25 L14.4667301,11.9798584 L9.29166667,11.9798584 Z" id="Stroke"></path>
            <path d="M9.25,11.125 L14.8151455,11.125 C15.0912879,11.125 15.3151455,10.9011424 15.3151455,10.625 C15.3151455,10.3488576 15.0912879,10.125 14.8151455,10.125 L9.25,10.125 C8.97385763,10.125 8.75,10.3488576 8.75,10.625 C8.75,10.9011424 8.97385763,11.125 9.25,11.125 Z" id="Stroke"></path>
        </g>
    </g>
</svg>