<?xml version="1.0" encoding="UTF-8"?>
<svg width="24px" height="24px" viewBox="0 0 24 24" version="1.1" xmlns="http://www.w3.org/2000/svg" xmlns:xlink="http://www.w3.org/1999/xlink">
    <!-- Generator: Sketch 45.1 (43504) - http://www.bohemiancoding.com/sketch -->
    <title>Mymoid-font/merchant</title>
    <desc>Created with Sketch.</desc>
    <defs></defs>
    <g id="Export-Fonts" stroke="none" stroke-width="1" fill="none" fill-rule="evenodd">
        <g id="Mymoid-font/merchant" fill-rule="nonzero" fill="#000000">
            <path d="M23.761,6.732 L20.74,3.275 L20.74,1.48 C20.74,1.204 20.516,0.98 20.24,0.98 L3.701,0.98 C3.425,0.98 3.201,1.204 3.201,1.48 L3.201,3.316 L0.215,6.732 C0.135,6.823 0.091,6.94 0.091,7.061 C0.091,10.016 3.78,10.606 5.15,8.709 C5.68,9.443 6.559,9.821 7.431,9.821 C8.302,9.821 9.18,9.444 9.709,8.71 C10.769,10.178 13.209,10.178 14.268,8.71 C15.328,10.176 17.767,10.179 18.827,8.71 C20.197,10.605 23.886,10.017 23.886,7.062 C23.885,6.94 23.841,6.823 23.761,6.732 Z M19.739,1.98 L19.739,2.972 L4.201,2.972 L4.201,1.98 L19.739,1.98 Z M21.106,8.821 C20.219,8.821 19.326,8.277 19.326,7.061 C19.326,6.785 19.102,6.561 18.826,6.561 C18.55,6.561 18.326,6.785 18.326,7.061 C18.326,7.612 18.138,8.068 17.783,8.381 C16.868,9.189 14.767,8.919 14.767,7.061 C14.767,6.785 14.543,6.561 14.267,6.561 C13.991,6.561 13.767,6.785 13.767,7.061 C13.767,7.612 13.579,8.068 13.224,8.381 C12.308,9.189 10.208,8.92 10.208,7.061 C10.208,6.785 9.984,6.561 9.708,6.561 C9.432,6.561 9.208,6.785 9.208,7.061 C9.208,7.612 9.02,8.068 8.666,8.381 C7.749,9.191 5.65,8.919 5.65,7.061 C5.65,6.785 5.426,6.561 5.15,6.561 C4.874,6.561 4.65,6.785 4.65,7.061 C4.65,7.612 4.462,8.068 4.108,8.381 C3.22,9.163 1.229,8.937 1.099,7.241 L3.956,3.972 L20.022,3.972 L22.878,7.241 C22.794,8.33 21.946,8.821 21.106,8.821 Z" id="Shape"></path>
            <path d="M20.529,11.163 C20.253,11.163 20.029,11.387 20.029,11.663 L20.029,15.98 L3.91,15.98 L3.91,11.677 C3.91,11.401 3.686,11.177 3.41,11.177 C3.134,11.177 2.91,11.401 2.91,11.677 L2.91,16.48 L2.91,22.5 C2.91,22.776 3.134,23 3.41,23 L20.529,23 C20.805,23 21.029,22.776 21.029,22.5 L21.029,16.48 L21.029,11.663 C21.029,11.387 20.806,11.163 20.529,11.163 Z M20.029,22 L3.91,22 L3.91,16.98 L20.029,16.98 L20.029,22 Z" id="Shape"></path>
        </g>
    </g>
</svg>