<?xml version="1.0" encoding="UTF-8"?>
<svg width="24px" height="24px" viewBox="0 0 24 24" version="1.1" xmlns="http://www.w3.org/2000/svg" xmlns:xlink="http://www.w3.org/1999/xlink">
    <!-- Generator: Sketch 45.1 (43504) - http://www.bohemiancoding.com/sketch -->
    <title>Mymoid-font/moto</title>
    <desc>Created with Sketch.</desc>
    <defs></defs>
    <g id="Export-Fonts" stroke="none" stroke-width="1" fill="none" fill-rule="evenodd">
        <g id="Mymoid-font/moto" fill-rule="nonzero" fill="#000000">
            <path d="M21.405,20.901 C17.922,19.555 15.558,17.95 15.211,17.129 L15.211,16.751 C16.946,16.462 18.295,15.667 18.395,13.467 C18.732,13.173 18.95,12.746 18.95,12.265 L18.95,8.92 C18.95,8.196 18.464,7.591 17.804,7.393 L17.804,6.26 C17.804,3.062 15.202,0.46 12.004,0.46 C8.806,0.46 6.204,3.062 6.204,6.26 L6.204,7.398 C5.551,7.599 5.072,8.201 5.072,8.92 L5.072,12.265 C5.072,13.147 5.79,13.865 6.672,13.865 L7.217,13.865 C7.589,14.926 8.162,15.648 8.791,16.303 L8.791,17.128 C8.483,17.836 6.423,19.422 2.596,20.902 C2.096,21.096 1.773,21.571 1.773,22.111 L1.773,22.679 C1.773,23.393 2.349,23.974 3.057,23.974 L20.946,23.974 C21.654,23.974 22.23,23.393 22.23,22.679 L22.23,22.111 C22.229,21.578 21.898,21.092 21.405,20.901 Z M15.852,15.57 C16.234,15.093 16.563,14.544 16.803,13.865 L17.349,13.865 C17.353,13.865 17.356,13.864 17.359,13.864 C17.226,14.731 16.782,15.265 15.852,15.57 Z M17.95,12.265 C17.95,12.596 17.68,12.865 17.349,12.865 L16.955,12.865 L16.955,8.32 L17.349,8.32 C17.68,8.32 17.95,8.589 17.95,8.92 L17.95,12.265 Z M12.004,1.46 C14.65,1.46 16.804,3.613 16.804,6.26 L16.804,6.407 C16.346,4.206 14.748,3.077 12.002,3.077 C9.276,3.077 7.649,4.259 7.204,6.49 L7.204,6.26 C7.204,3.613 9.357,1.46 12.004,1.46 Z M6.072,12.265 L6.072,8.92 C6.072,8.589 6.341,8.32 6.672,8.32 L7.066,8.32 L7.066,12.865 L6.672,12.865 C6.341,12.865 6.072,12.596 6.072,12.265 Z M21.229,22.679 C21.229,22.842 21.101,22.974 20.945,22.974 L3.057,22.974 C2.901,22.974 2.773,22.842 2.773,22.679 L2.773,22.111 C2.773,21.988 2.848,21.877 2.958,21.835 C5.8,20.735 9.29,18.905 9.769,17.365 C9.784,17.317 9.791,17.267 9.791,17.217 L9.791,16.1 C9.791,15.969 9.74,15.844 9.648,15.75 C8.973,15.061 8.388,14.398 8.065,13.295 L8.065,7.82 C8.065,5.267 9.315,4.077 12.001,4.077 C14.736,4.077 15.956,5.231 15.956,7.82 L15.956,13.295 C15.64,14.373 15.042,15.046 14.353,15.75 C14.324,15.779 14.307,15.816 14.287,15.851 C14.011,15.875 13.702,15.891 13.382,15.902 C13.181,15.439 12.722,15.113 12.186,15.113 C11.467,15.113 10.882,15.698 10.882,16.418 C10.882,17.138 11.467,17.723 12.186,17.723 C12.731,17.723 13.196,17.386 13.391,16.91 C13.668,16.901 13.941,16.888 14.211,16.868 L14.211,17.217 C14.211,17.268 14.219,17.318 14.233,17.366 C14.715,18.907 18.204,20.736 21.045,21.835 C21.155,21.877 21.23,21.988 21.23,22.111 L21.23,22.679 L21.229,22.679 Z M12.186,16.722 C12.018,16.722 11.882,16.585 11.882,16.417 C11.882,16.249 12.018,16.112 12.186,16.112 C12.354,16.112 12.491,16.249 12.491,16.417 C12.491,16.585 12.354,16.722 12.186,16.722 Z" id="Shape"></path>
        </g>
    </g>
</svg>