<?xml version="1.0" encoding="UTF-8"?>
<svg width="24px" height="24px" viewBox="0 0 24 24" version="1.1" xmlns="http://www.w3.org/2000/svg" xmlns:xlink="http://www.w3.org/1999/xlink">
    <!-- Generator: Sketch 45.1 (43504) - http://www.bohemiancoding.com/sketch -->
    <title>Mymoid-font/notification</title>
    <desc>Created with Sketch.</desc>
    <defs></defs>
    <g id="Export-Fonts" stroke="none" stroke-width="1" fill="none" fill-rule="evenodd">
        <g id="Mymoid-font/notification" fill-rule="nonzero" fill="#000000">
            <path d="M15.94043,3.29346 C15.55603,3.29346 15.20813,3.44483 14.8949,3.70734 L9.69482,6.60205 L7.73438,6.97266 L2.04736,8.04834 C0.9209,8.27148 0.10303,9.26709 0.10303,10.41602 C0.10303,11.54004 0.8667,12.50586 1.96533,12.76612 L3.04931,13.01105 L3.04931,18.4502 C3.04931,19.25098 3.56054,19.95704 4.32275,20.20801 C4.51367,20.27149 4.70752,20.30078 4.89795,20.30078 C5.67627,20.30078 6.40234,19.80566 6.6582,19.02734 C6.74365,18.7666 6.7705,18.48535 6.73535,18.21386 L6.15564,13.71301 L7.69775,14.06152 C7.6994,14.06189 7.7005,14.06311 7.70214,14.06347 L9.687,14.51171 L14.89507,17.41143 C15.20824,17.67388 15.55608,17.82519 15.94042,17.82519 C17.8828,17.82519 18.93163,14.08105 18.93163,10.55908 C18.93163,7.03711 17.88281,3.29346 15.94043,3.29346 Z M5.70801,18.71484 C5.56153,19.16113 5.08252,19.40429 4.63477,19.25879 C4.28467,19.14356 4.04932,18.81836 4.04932,18.4502 L4.04932,13.2373 L5.11719,13.47851 L5.74317,18.34179 C5.75977,18.46582 5.74707,18.5957 5.70801,18.71484 Z M10.33722,13.72986 C10.13239,12.6883 10.02136,11.62451 10.02686,10.55664 C10.02137,9.49396 10.13233,8.43072 10.3371,7.38892 L13.76758,5.4795 C13.23053,6.87 12.94922,8.742 12.94922,10.55908 C12.94922,12.37671 13.23071,14.24933 13.76807,15.64007 L10.33722,13.72986 Z M8.27301,7.88831 L9.27838,7.69819 C9.12176,8.64448 9.02222,9.60108 9.02685,10.55665 C9.02221,11.50758 9.1206,12.45588 9.27429,13.39411 L8.26221,13.16566 C7.98553,11.41211 7.98944,9.64075 8.27301,7.88831 Z M1.10303,10.41602 C1.10303,9.74317 1.58203,9.16016 2.23731,9.03028 L7.2381,8.08411 C7.01032,9.69483 7.0055,11.31751 7.22339,12.92975 L4.51788,12.31812 L3.65966,12.12403 C3.6596,12.12403 3.6596,12.12403 3.65954,12.12403 L2.19091,11.792 C1.55029,11.64014 1.10303,11.07422 1.10303,10.41602 Z M15.94043,16.8252 C15.10938,16.8252 13.94922,14.44141 13.94922,10.55909 C13.94922,6.67725 15.10938,4.29347 15.94043,4.29347 C16.77148,4.29347 17.93164,6.67726 17.93164,10.55909 C17.93164,14.44141 16.77148,16.8252 15.94043,16.8252 Z" id="Shape"></path>
            <path d="M15.33203,8.9751 C15.05566,8.9751 14.83203,9.19873 14.83203,9.4751 C14.83203,9.75147 15.05566,9.9751 15.33203,9.9751 C15.66699,9.9751 15.93945,10.24756 15.93945,10.58252 C15.93945,10.91748 15.66699,11.18994 15.33203,11.18994 C15.05566,11.18994 14.83203,11.41357 14.83203,11.68994 C14.83203,11.96631 15.05566,12.18994 15.33203,12.18994 C16.21875,12.18994 16.93945,11.46875 16.93945,10.58252 C16.93945,9.69629 16.21875,8.9751 15.33203,8.9751 Z" id="Shape"></path>
            <path d="M23.2793,9.98877 L20.50196,9.98877 C20.22559,9.98877 20.00196,10.2124 20.00196,10.48877 C20.00196,10.76514 20.22559,10.98877 20.50196,10.98877 L23.2793,10.98877 C23.55567,10.98877 23.7793,10.76514 23.7793,10.48877 C23.7793,10.2124 23.55566,9.98877 23.2793,9.98877 Z" id="Shape"></path>
            <path d="M23.04297,14.46289 L20.36133,13.44434 C20.10449,13.35059 19.81445,13.47657 19.71582,13.73438 C19.61816,13.99317 19.74805,14.28126 20.00586,14.37989 L22.6875,15.39844 C22.74609,15.41992 22.80566,15.43067 22.86523,15.43067 C23.0664,15.43067 23.25683,15.30762 23.333,15.1084 C23.43066,14.84961 23.30078,14.56152 23.04297,14.46289 Z" id="Shape"></path>
            <path d="M20.18359,7.56543 C20.24316,7.56543 20.30273,7.55518 20.36132,7.53272 L23.04296,6.51417 C23.30077,6.41603 23.43066,6.12745 23.333,5.86915 C23.23437,5.60987 22.94433,5.48145 22.68749,5.5796 L20.00585,6.59815 C19.74804,6.69629 19.61815,6.98487 19.71581,7.24317 C19.79199,7.44287 19.98242,7.56543 20.18359,7.56543 Z" id="Shape"></path>
        </g>
    </g>
</svg>