<?xml version="1.0" encoding="UTF-8"?>
<svg width="24px" height="24px" viewBox="0 0 24 24" version="1.1" xmlns="http://www.w3.org/2000/svg" xmlns:xlink="http://www.w3.org/1999/xlink">
    <!-- Generator: Sketch 45.1 (43504) - http://www.bohemiancoding.com/sketch -->
    <title>Mymoid-font/payment_order</title>
    <desc>Created with Sketch.</desc>
    <defs></defs>
    <g id="Export-Fonts" stroke="none" stroke-width="1" fill="none" fill-rule="evenodd">
        <g id="Mymoid-font/payment_order" fill-rule="nonzero" fill="#000000">
            <path d="M17,4 L17,0.5 C17,0.223857625 16.7761424,-2.08721929e-14 16.5,-2.08721929e-14 C16.2238576,-2.08721929e-14 16,0.223857625 16,0.5 L16,4.5 C16,4.77614237 16.2238576,5 16.5,5 L20.5,5 C20.7761424,5 21,4.77614237 21,4.5 C21,4.22385763 20.7761424,4 20.5,4 L17,4 Z" id="Stroke"></path>
            <path d="M20,22.7002 L20,4.5002 C20,4.45379682 19.9916884,4.43745747 19.9128186,4.35910962 L16.6008599,1.09115028 C16.4972201,0.988911037 16.5163138,1.0002 16.5,1.0002 L4.287,1.0002 C4.13402956,1.0002 4,1.13846951 4,1.3052 L4,22.7002 C4,22.8656048 4.13170191,23.0002 4.287,23.0002 L19.708,23.0002 C19.8663492,23.0002 20,22.8645666 20,22.7002 Z M21,22.7002 C21,23.4135821 20.4219569,24.0002 19.708,24.0002 L4.287,24.0002 C3.57449499,24.0002 3,23.4130843 3,22.7002 L3,1.3052 C3,0.593034182 3.57465528,0.0002 4.287,0.0002 L16.5,0.0002 C16.8451554,0.0002 17.0292082,0.109019534 17.3031814,0.37929038 L20.616369,3.64846614 C20.8703085,3.90071274 21,4.15566529 21,4.5002 L21,22.7002 Z" id="Stroke"></path>
            <path d="M8.2266,11.414 L13.2156,11.414 C13.4917424,11.414 13.7156,11.1901424 13.7156,10.914 C13.7156,10.6378576 13.4917424,10.414 13.2156,10.414 L8.2266,10.414 C7.95045763,10.414 7.7266,10.6378576 7.7266,10.914 C7.7266,11.1901424 7.95045763,11.414 8.2266,11.414 Z" id="Stroke"></path>
            <path d="M8.2266,13.414 L13.2156,13.414 C13.4917424,13.414 13.7156,13.1901424 13.7156,12.914 C13.7156,12.6378576 13.4917424,12.414 13.2156,12.414 L8.2266,12.414 C7.95045763,12.414 7.7266,12.6378576 7.7266,12.914 C7.7266,13.1901424 7.95045763,13.414 8.2266,13.414 Z" id="Stroke"></path>
            <path d="M15.8564163,8.91510738 C15.1319703,7.69836475 13.9991439,6.9559 12.7518,6.9559 C10.5672313,6.9559 8.8578,9.20105057 8.8578,11.9139 C8.8578,14.6267494 10.5672313,16.8719 12.7518,16.8719 C14.0568334,16.8719 15.2338122,16.0604601 15.9487031,14.7504079 C16.0809797,14.5080084 15.9917074,14.2042734 15.7493079,14.0719969 C15.5069084,13.9397203 15.2031734,14.0289926 15.0708969,14.2713921 C14.5204125,15.2801659 13.662113,15.8719 12.7518,15.8719 C11.1880997,15.8719 9.8578,14.1246973 9.8578,11.9139 C9.8578,9.7031027 11.1880997,7.9559 12.7518,7.9559 C13.6201423,7.9559 14.4423112,8.49475697 14.9971837,9.42669262 C15.1384541,9.66396313 15.4453221,9.74178663 15.6825926,9.60051627 C15.9198631,9.4592459 15.9976866,9.15237789 15.8564163,8.91510738 Z" id="Stroke"></path>
        </g>
    </g>
</svg>