<?xml version="1.0" encoding="UTF-8"?>
<svg width="24px" height="24px" viewBox="0 0 24 24" version="1.1" xmlns="http://www.w3.org/2000/svg" xmlns:xlink="http://www.w3.org/1999/xlink">
    <!-- Generator: Sketch 45.1 (43504) - http://www.bohemiancoding.com/sketch -->
    <title>Mymoid-font/payments</title>
    <desc>Created with Sketch.</desc>
    <defs></defs>
    <g id="Export-Fonts" stroke="none" stroke-width="1" fill="none" fill-rule="evenodd">
        <g id="Mymoid-font/payments" fill-rule="nonzero" fill="#000000">
            <path d="M23.54785,18.64648 C23.34277,18.23242 22.98926,17.92382 22.55176,17.77636 C22.11621,17.62988 21.64649,17.6621 21.25,17.85839 L17.35449,19.61327 C17.13965,19.36132 16.85644,19.17479 16.52929,19.07714 L11.03417,17.48437 C8.56298,16.76855 4.26952,17.48828 2.20653,17.83496 L1.59911,17.93555 C0.88231,18.04785 0.30614,18.60157 0.166,19.3125 C0.15672,19.36133 0.15428,19.41113 0.15916,19.46094 C0.25096,20.34278 0.44822,21.21582 0.73631,22.02539 C0.99559,22.93848 1.91844,23.47168 2.83494,23.23242 C3.26853,23.12304 3.6865,23.00879 4.08445,22.90039 C5.39646,22.54004 6.63621,22.20312 7.16941,22.43652 C9.3032,23.42968 11.57908,23.94726 13.93943,23.97363 C16.18064,23.97363 16.32029,23.90918 19.89158,22.27051 C20.65525,21.9209 21.58006,21.4961 22.76756,20.95996 C23.18162,20.75488 23.49022,20.40137 23.63768,19.96387 C23.78514,19.52637 23.75293,19.05859 23.54785,18.64648 Z M22.68945,19.64453 C22.62793,19.8291 22.49804,19.97754 22.31054,20.07031 C21.16699,20.58593 20.24023,21.01074 19.4746,21.3623 C15.9619,22.97363 15.9619,22.97363 13.9453,22.97363 C11.73339,22.94922 9.59569,22.46289 7.58251,21.52636 C7.32128,21.41113 7.02343,21.3623 6.69042,21.3623 C5.91601,21.3623 4.95116,21.62597 3.8203,21.93554 C3.4287,22.04296 3.01708,22.15527 2.58837,22.26366 C2.19726,22.36229 1.8081,22.13866 1.68847,21.72167 C1.42676,20.9834 1.25,20.2168 1.16309,19.44141 C1.24219,19.17188 1.47217,18.96778 1.7544,18.92383 L2.37256,18.82129 C4.36182,18.48633 8.50195,17.79004 10.75586,18.44531 L16.24707,20.03711 C16.62988,20.15137 16.84863,20.55566 16.73437,20.93945 C16.62207,21.32129 16.21875,21.54004 15.83593,21.42871 L10.06249,19.75391 C9.79687,19.67579 9.51952,19.82911 9.44335,20.09473 C9.3662,20.36035 9.51903,20.6377 9.78417,20.71485 L15.55663,22.38965 C16.46581,22.65039 17.42284,22.13086 17.69335,21.22461 C17.76171,20.99609 17.78124,20.76074 17.7539,20.53027 L21.67773,18.76269 C21.85058,18.67578 22.05078,18.66113 22.23242,18.7246 C22.41699,18.78612 22.56543,18.91601 22.65234,19.09081 C22.73828,19.26465 22.75195,19.46094 22.68945,19.64453 Z" id="Shape"></path>
            <path d="M5.79492,16.03418 C5.83301,16.30664 6.08252,16.48926 6.36035,16.45898 C6.63379,16.41992 6.82373,16.16699 6.78515,15.89355 C6.77197,15.80175 6.76415,15.70898 6.76171,15.61621 C6.65667,12.17993 10.93023,6.17523 11.79558,4.99615 L16.27294,4.98748 C17.12377,6.14733 21.41967,12.18334 21.31347,15.63085 C21.30859,15.81835 21.28124,16.0078 21.23046,16.19335 C21.15819,16.45995 21.31542,16.73437 21.58202,16.80663 C21.62597,16.81835 21.66991,16.82421 21.71288,16.82421 C21.93358,16.82421 22.13476,16.67773 22.1953,16.45507 C22.26659,16.19237 22.30663,15.92382 22.31346,15.65917 C22.41789,12.26519 18.89982,6.95043 17.48399,4.9547 C17.87205,4.99095 18.28447,5.11156 18.47947,5.4497 C18.69236,5.81738 18.79099,6.15331 18.8867,6.47851 C19.05076,7.03662 19.22068,7.61425 19.92576,8.00048 C20.00193,8.04247 20.08396,8.062 20.16599,8.062 C20.34177,8.062 20.51365,7.96825 20.60447,7.80223 C20.73728,7.56004 20.64842,7.25633 20.40623,7.12352 C20.07713,6.94334 19.99705,6.70897 19.84568,6.19627 C19.74412,5.85057 19.61814,5.42088 19.34568,4.94969 C18.84837,4.0861 17.84928,3.9351 17.1547,3.94194 C17.44749,3.20195 18.1619,1.87718 18.85056,0.76268 C18.94529,0.60838 18.95017,0.41454 18.8613,0.25633 C18.77344,0.09814 18.60645,0 18.4248,0 L9.65088,0 C9.46973,0 9.30273,0.09814 9.21436,0.25635 C9.12599,0.41456 9.13037,0.6084 9.22559,0.7627 C9.93372,1.91016 10.6731,3.28461 10.94782,4.00855 C10.1416,4.05597 9.85925,4.26929 9.32666,4.88086 C9.18945,5.03906 9.02246,5.23145 8.79785,5.46387 C8.11133,6.17676 7.66553,5.88379 7.54346,5.77539 C7.3457,5.58887 7.03369,5.5957 6.84229,5.7915 C6.6499,5.98975 6.65479,6.30615 6.85303,6.49854 C6.89844,6.54297 7.31983,6.90284 7.98926,6.92383 C8.52197,6.91504 9.03614,6.65723 9.51758,6.15821 C9.75684,5.91016 9.93457,5.70606 10.08106,5.5376 C10.23548,5.36041 10.34076,5.24427 10.44465,5.1626 C8.95081,7.29022 5.66145,12.3606 5.76173,15.64746 C5.76611,15.77539 5.77686,15.90527 5.79492,16.03418 Z M17.54004,1 C16.99481,1.93024 16.31775,3.18396 16.09564,3.99658 L11.97986,3.99658 C11.75769,3.18396 11.08075,1.93024 10.53516,1 L17.54004,1 Z" id="Shape"></path>
            <path d="M14.06738,16.82422 C14.34375,16.82422 14.56738,16.60059 14.56738,16.32422 L14.56738,15.7002 C15.46179,15.52173 16.16839,14.7569 16.23828,13.77637 C16.23828,12.66761 15.20868,12.17353 14.56738,11.95154 L14.56738,9.98035 C14.78467,10.06873 14.96881,10.21686 15.1084,10.417 C15.26758,10.64454 15.58106,10.69727 15.80469,10.54102 C16.03125,10.38282 16.08692,10.07129 15.92871,9.84473 C15.59741,9.37018 15.10223,9.06336 14.56738,8.94922 L14.56738,8.30762 C14.56738,8.03125 14.34375,7.80762 14.06738,7.80762 C13.79101,7.80762 13.56738,8.03125 13.56738,8.30762 L13.56738,8.93451 C12.66546,9.1087 11.96539,9.87451 11.89648,10.85498 C11.89648,11.9469 12.88415,12.43201 13.56738,12.67523 L13.56738,14.63794 C13.17669,14.52899 12.81317,14.34082 12.50049,14.07031 C12.29248,13.88965 11.97656,13.91113 11.79541,14.12109 C11.61475,14.33007 11.63721,14.6455 11.84619,14.82617 C12.34155,15.25543 12.93005,15.53497 13.56738,15.66333 L13.56738,16.32422 C13.56738,16.60059 13.79102,16.82422 14.06738,16.82422 Z M15.23926,13.74023 C15.20825,14.16412 14.93781,14.51178 14.56738,14.65991 L14.56738,13.03161 C15.15051,13.3028 15.23853,13.56927 15.23926,13.74023 Z M12.89502,10.89062 C12.92456,10.47833 13.19617,10.14593 13.56738,9.99108 L13.56738,11.59691 C13.02759,11.35083 12.89612,11.12305 12.89502,10.89062 Z" id="Shape"></path>
        </g>
    </g>
</svg>