<?xml version="1.0" encoding="UTF-8"?>
<svg width="20px" height="20px" viewBox="0 0 20 20" version="1.1" xmlns="http://www.w3.org/2000/svg" xmlns:xlink="http://www.w3.org/1999/xlink">
    <!-- Generator: Sketch 47.1 (45422) - http://www.bohemiancoding.com/sketch -->
    <title>eyedropper.3</title>
    <desc>Created with Sketch.</desc>
    <defs></defs>
    <g id="Symbols" stroke="none" stroke-width="1" fill="none" fill-rule="evenodd">
        <g id="color-picker" transform="translate(-10.000000, -12.000000)" fill-rule="nonzero" fill="#34495E">
            <g id="eyedropper.3" transform="translate(10.000000, 12.217877)">
                <path d="M1.22276538,19.5512032 C1.11760756,19.5512032 1.01326491,19.5104444 0.934192749,19.4321874 L0.11901583,18.6170105 C-0.0187490691,18.4800608 -0.0391284921,18.2640389 0.0676596843,18.1026338 L1.42411408,16.0679523 C1.55943345,15.8657884 1.63035384,15.6310174 1.63035384,15.3889099 L1.63035384,14.9275197 C1.63035384,14.3829816 1.84229984,13.8710505 2.22706334,13.4862869 L8.27078502,7.44256527 C8.42974452,7.28360577 8.6881556,7.28360577 8.8471151,7.44256527 L12.1078228,10.7032729 C12.1852646,10.7807148 12.2276538,10.8858726 12.2268386,10.9951063 C12.2260234,11.10434 12.1803735,11.2086826 12.1021165,11.2844941 C12.0556515,11.3293288 7.43604386,15.7728582 6.01519049,17.2841962 C5.63450286,17.688524 5.09567092,17.9200342 4.53645955,17.9200342 L4.16147817,17.9200342 C3.91855545,17.9200342 3.68459967,17.9909546 3.48325098,18.1246436 L1.44856939,19.4827284 C1.37927935,19.5291934 1.30102236,19.5512032 1.22276538,19.5512032 Z M0.932562395,18.2762665 L1.2749367,18.6186408 L3.03164296,17.4472316 C3.36668068,17.2238731 3.7579656,17.1048573 4.16229335,17.1048573 L4.53727473,17.1048573 C4.87801868,17.1048573 5.19267697,16.9703531 5.42255687,16.7258 C6.64450707,15.4272232 10.1848204,12.002665 11.2388442,10.9853242 L8.55935765,8.30746798 L2.80339342,14.0634322 C2.57269836,14.2941273 2.44553076,14.601449 2.44553076,14.9283349 L2.44553076,15.3897251 C2.44553076,15.7932376 2.32651493,16.1837074 2.10315645,16.5195603 L0.932562395,18.2762665 Z" id="Shape"></path>
                <path d="M12.6352422,12.214611 C12.5308996,12.214611 12.426557,12.1746673 12.3466696,12.0955951 L7.4556081,7.20453361 C7.2966486,7.04557411 7.2966486,6.78716303 7.4556081,6.62820353 L9.08596194,4.99784969 C9.24492144,4.83889019 9.50333252,4.83889019 9.66229202,4.99784969 L14.5533535,9.8889112 C14.712313,10.0478707 14.712313,10.3062818 14.5533535,10.4652413 L12.9229997,12.0955951 C12.8439275,12.1746673 12.7395849,12.214611 12.6352422,12.214611 Z M8.32051081,6.91596098 L12.6352422,11.2306924 L13.689266,10.1766687 L9.37453457,5.86193722 L8.32051081,6.91596098 Z" id="Shape"></path>
                <path d="M13.4504192,9.7690802 C13.3460765,9.7690802 13.2417339,9.72913653 13.1618465,9.65006437 L9.90113886,6.38935669 C9.74462489,6.23284272 9.74217936,5.9793227 9.89543262,5.81873285 L14.6878577,0.829034927 C15.7744886,-0.260041437 17.6502107,-0.255150376 18.7278745,0.823328688 C19.2675217,1.36134545 19.5642461,2.07788597 19.5642461,2.84007639 C19.5642461,3.60226681 19.2675217,4.31880732 18.7286897,4.85763926 L13.7332856,9.65577061 C13.6533982,9.73158206 13.5523163,9.7690802 13.4504192,9.7690802 Z M10.7603353,6.09507782 L13.4561254,8.79086789 L18.1580659,4.27478776 C18.5371231,3.8957305 18.7490691,3.38379939 18.7490691,2.84007639 C18.7490691,2.29635338 18.5371231,1.78442228 18.1523596,1.39884359 C17.3820174,0.628501405 16.0394211,0.630131758 15.2707092,1.39884359 L10.7603353,6.09507782 Z" id="Shape"></path>
                <path d="M3.66829614,16.2904956 C3.44330731,16.2904956 3.26070768,16.1078959 3.26070768,15.8829071 L3.26070768,15.3359234 C3.26070768,14.7913852 3.47265368,14.2794541 3.85741718,13.8946906 L5.82525426,11.9268535 C5.98421376,11.767894 6.24262485,11.767894 6.40158435,11.9268535 C6.56054384,12.085813 6.56054384,12.3442241 6.40158435,12.5031836 L4.43374726,14.4710207 C4.20305219,14.7017157 4.0758846,15.0090374 4.0758846,15.3359234 L4.0758846,15.8829071 C4.0758846,16.1078959 3.89328497,16.2904956 3.66829614,16.2904956 Z" id="Shape"></path>
            </g>
        </g>
    </g>
</svg>