<?xml version="1.0" encoding="UTF-8"?>
<svg width="24px" height="24px" viewBox="0 0 24 24" version="1.1" xmlns="http://www.w3.org/2000/svg" xmlns:xlink="http://www.w3.org/1999/xlink">
    <!-- Generator: Sketch 45.1 (43504) - http://www.bohemiancoding.com/sketch -->
    <title>Mymoid-font/pos_senttings</title>
    <desc>Created with Sketch.</desc>
    <defs></defs>
    <g id="Export-Fonts" stroke="none" stroke-width="1" fill="none" fill-rule="evenodd">
        <g id="Mymoid-font/pos_senttings" fill-rule="nonzero" fill="#000000">
            <path d="M22.50977,0.02635 L1.50977,0.02635 C0.68262,0.02635 0.00977,0.6992 0.00977,1.52635 L0.00977,22.52635 C0.00977,23.3535 0.68262,24.02635 1.50977,24.02635 L22.50977,24.02635 C23.33692,24.02635 24.00977,23.3535 24.00977,22.52635 L24.00977,1.52635 C24.00977,0.6992 23.33691,0.02635 22.50977,0.02635 Z M1.50977,1.02635 L22.50977,1.02635 C22.78516,1.02635 23.00977,1.25047 23.00977,1.52635 L23.00977,4.02635 L1.00977,4.02635 L1.00977,1.52635 C1.00977,1.25047 1.23389,1.02635 1.50977,1.02635 Z M22.50977,23.02635 L1.50977,23.02635 C1.23389,23.02635 1.00977,22.80174 1.00977,22.52635 L1.00977,5.02635 L23.00977,5.02635 L23.00977,22.52635 C23.00977,22.80174 22.78516,23.02635 22.50977,23.02635 Z" id="Shape"></path>
            <path d="M2.1499,2.87987 C2.1997,2.92967 2.25976,2.95995 2.31982,2.98973 C2.37988,3.00975 2.43994,3.02977 2.50976,3.02977 C2.56982,3.02977 2.63964,3.00975 2.6997,2.98973 C2.75976,2.95994 2.81982,2.92967 2.85986,2.87987 C2.95996,2.77977 3.00976,2.65966 3.00976,2.52977 C3.00976,2.45995 2.99999,2.39989 2.96972,2.33983 C2.94971,2.27 2.90967,2.21971 2.85986,2.16991 C2.71973,2.02977 2.5,1.98973 2.31982,2.06981 C2.25977,2.08983 2.19971,2.12987 2.1499,2.16991 C2.06006,2.27 2.00977,2.38963 2.00977,2.52977 C2.00977,2.58983 2.02002,2.65965 2.04981,2.71971 C2.06982,2.77977 2.10986,2.82957 2.1499,2.87987 Z" id="Shape"></path>
            <path d="M4.31982,2.98973 C4.37988,3.00975 4.43994,3.02977 4.50976,3.02977 C4.63964,3.02977 4.77001,2.96971 4.85986,2.87987 C4.90966,2.82958 4.9497,2.77977 4.96972,2.71971 C5,2.65965 5.00977,2.58983 5.00977,2.52977 C5.00977,2.45995 5,2.39989 4.96973,2.32957 C4.94971,2.27 4.90967,2.21971 4.85986,2.16991 C4.71973,2.02977 4.5,1.98973 4.31982,2.06004 C4.25977,2.08983 4.19971,2.12987 4.1499,2.16991 C4.06006,2.27 4.00977,2.38963 4.00977,2.52977 C4.00977,2.65965 4.06006,2.79002 4.14991,2.87987 C4.19971,2.92967 4.25977,2.95995 4.31982,2.98973 Z" id="Shape"></path>
            <path d="M6.50977,3.02977 C6.63965,3.02977 6.77002,2.96971 6.85987,2.87987 C6.95997,2.79003 7.00977,2.65966 7.00977,2.52977 C7.00977,2.45995 7,2.39989 6.96973,2.32957 C6.93994,2.27 6.90967,2.21971 6.85986,2.16991 C6.67968,1.98973 6.33984,1.98973 6.1499,2.16991 C6.10986,2.21971 6.06982,2.27 6.0498,2.32957 C6.02001,2.39988 6.00976,2.45994 6.00976,2.52977 C6.00976,2.65965 6.06005,2.79002 6.1499,2.87987 C6.25,2.96971 6.37988,3.02977 6.50977,3.02977 Z" id="Shape"></path>
            <path d="M15.5,8.99998 L11.48724,8.99998 C11.03039,8.39653 10.31347,7.99998 9.5,7.99998 C8.12158,7.99998 7,9.12156 7,10.49998 C7,11.8784 8.12158,12.99998 9.5,12.99998 C10.31348,12.99998 11.0304,12.60343 11.48724,11.99998 L15.5,11.99998 C16.32715,11.99998 17,11.32713 17,10.49998 C17,9.67283 16.32715,8.99998 15.5,8.99998 Z M9.5,11.99998 C8.67285,11.99998 8,11.32713 8,10.49998 C8,9.67283 8.67285,8.99998 9.5,8.99998 C10.32715,8.99998 11,9.67283 11,10.49998 C11,11.32713 10.32715,11.99998 9.5,11.99998 Z M15.5,10.99998 L11.9494,10.99998 C11.98236,10.83836 12,10.67118 12,10.49998 C12,10.32878 11.98236,10.1616 11.9494,9.99998 L15.5,9.99998 C15.77539,9.99998 16,10.2241 16,10.49998 C16,10.77586 15.77539,10.99998 15.5,10.99998 Z" id="Shape"></path>
            <path d="M14.5,14.99998 C13.68616,14.99998 12.96918,15.3964 12.51245,15.99998 L8.5,15.99998 C7.67285,15.99998 7,16.67283 7,17.49998 C7,18.32713 7.67285,18.99998 8.5,18.99998 L12.51245,18.99998 C12.96918,19.60356 13.68616,19.99998 14.5,19.99998 C15.87891,19.99998 17,18.87889 17,17.49998 C17,16.12107 15.87891,14.99998 14.5,14.99998 Z M8.5,17.99998 C8.22412,17.99998 8,17.77537 8,17.49998 C8,17.22459 8.22412,16.99998 8.5,16.99998 L12.05054,16.99998 C12.01764,17.16161 12,17.32872 12,17.49998 C12,17.67124 12.01764,17.83836 12.05054,17.99998 L8.5,17.99998 Z M14.5,18.99998 C13.67285,18.99998 13,18.32713 13,17.49998 C13,16.67283 13.67285,15.99998 14.5,15.99998 C15.32715,15.99998 16,16.67283 16,17.49998 C16,18.32713 15.32715,18.99998 14.5,18.99998 Z" id="Shape"></path>
        </g>
    </g>
</svg>