<?xml version="1.0" encoding="UTF-8"?>
<svg width="24px" height="24px" viewBox="0 0 24 24" version="1.1" xmlns="http://www.w3.org/2000/svg" xmlns:xlink="http://www.w3.org/1999/xlink">
    <!-- Generator: Sketch 45.1 (43504) - http://www.bohemiancoding.com/sketch -->
    <title>Mymoid-font/product_settings</title>
    <desc>Created with Sketch.</desc>
    <defs></defs>
    <g id="Export-Fonts" stroke="none" stroke-width="1" fill="none" fill-rule="evenodd">
        <g id="Mymoid-font/product_settings" fill-rule="nonzero" fill="#000000">
            <path d="M22.957,22.9459 L1.013,22.9459 L1.013,7.5459 C1.013,7.26975763 0.789142375,7.0459 0.513,7.0459 C0.236857625,7.0459 0.013,7.26975763 0.013,7.5459 L0.013,23.4459 C0.013,23.7220424 0.236857625,23.9459 0.513,23.9459 L23.457,23.9459 C23.7331424,23.9459 23.957,23.7220424 23.957,23.4459 L23.957,7.5459 C23.957,7.26975763 23.7331424,7.0459 23.457,7.0459 C23.1808576,7.0459 22.957,7.26975763 22.957,7.5459 L22.957,22.9459 Z" id="Stroke"></path>
            <path d="M1.31759468,6.9897 L22.6532053,6.9897 L19.7028366,1.0007 L4.2679634,1.0007 L1.31759468,6.9897 Z M0.0653721901,7.26874117 L3.50837219,0.279741172 C3.59253602,0.108895684 3.76644861,0.0007 3.9569,0.0007 L20.0139,0.0007 C20.2043514,0.0007 20.378264,0.108895684 20.4624278,0.279741172 L23.9054278,7.26874117 C24.0691143,7.60101091 23.8273004,7.9897 23.4569,7.9897 L0.5139,7.9897 C0.143499621,7.9897 -0.0983142771,7.60101091 0.0653721901,7.26874117 Z" id="Stroke"></path>
            <path d="M12,0.5 L12,7.5 C12,7.77614237 12.2238576,8 12.5,8 C12.7761424,8 13,7.77614237 13,7.5 L13,0.5 C13,0.223857625 12.7761424,0 12.5,0 C12.2238576,0 12,0.223857625 12,0.5 Z" id="Stroke"></path>
            <path d="M13.1992916,15.9130292 C13.1992916,15.2023418 12.6233553,14.6263361 11.9128138,14.6263361 C11.2025356,14.6263361 10.6263361,15.2025092 10.6263361,15.9130292 C10.6263361,16.6234298 11.2024162,17.1992916 11.9128138,17.1992916 C12.6234747,17.1992916 13.1992916,16.6235971 13.1992916,15.9130292 Z M14.1992916,15.9130292 C14.1992916,17.1759295 13.1757119,18.1992916 11.9128138,18.1992916 C10.6502163,18.1992916 9.62633606,17.1757994 9.62633606,15.9130292 C9.62633606,14.6502141 10.6502612,13.6263361 11.9128138,13.6263361 C13.175667,13.6263361 14.1992916,14.650084 14.1992916,15.9130292 Z" id="Stroke"></path>
            <path d="M15.6116526,17.7627136 L16.2301549,18.5674581 C16.3673934,18.7460215 16.3683181,18.9942973 16.2324135,19.1738781 C15.9301568,19.5732722 15.5744886,19.929123 15.1758317,20.2307186 C14.9962774,20.3665566 14.7480804,20.3656323 14.5695428,20.2284607 L13.7650243,19.6103434 C13.5892699,19.698655 13.4072356,19.7742987 13.2200937,19.8366379 L13.0884354,20.8426401 C13.0592125,21.0659326 12.884324,21.2421356 12.6612565,21.2730296 C12.1544376,21.3432221 11.67168,21.343104 11.1664596,21.2730137 C10.9434576,21.2420761 10.7686351,21.0659139 10.7394009,20.8426821 L10.6078018,19.8377946 C10.4201501,19.7754728 10.2377627,19.6998616 10.0616877,19.6115326 L9.25655682,20.2301971 C9.0779765,20.3674186 8.82969667,20.3683152 8.65013002,20.2323869 C8.25053219,19.9298995 7.88980292,19.5680014 7.59359603,19.1764225 C7.45775554,18.9968445 7.45870732,18.7486212 7.59592093,18.5700901 L8.21410476,17.7657601 C8.12541104,17.5892363 8.04952915,17.4064309 7.98705099,17.2184002 L6.9815302,17.0868065 C6.75815129,17.0575727 6.5819095,16.8825641 6.55110788,16.659396 C6.48234038,16.1611523 6.4835628,15.6549112 6.55112233,15.1661818 C6.58196571,14.943059 6.75819017,14.7681046 6.9815302,14.7388758 L7.98705099,14.6072822 C8.04952915,14.4192515 8.12541104,14.236446 8.21410476,14.0599222 L7.59592093,13.2555922 C7.45867078,13.0770135 7.4577588,12.828713 7.59369346,12.649131 C7.89526972,12.2507214 8.25783307,11.889944 8.65033181,11.5931428 C8.82985392,11.4573911 9.07795095,11.4583176 9.25645413,11.5954063 L10.0618162,12.2139168 C10.2379037,12.1256959 10.4202451,12.0501556 10.6077883,11.9878836 L10.7393982,10.9825826 C10.7686466,10.7591689 10.9437131,10.5829188 11.1669246,10.5521657 C11.6723514,10.4825303 12.1549433,10.4825303 12.6612565,10.5526527 C12.884324,10.5835467 13.0592125,10.7597498 13.0884354,10.9830423 L13.2200925,11.9890355 C13.4071313,12.0513258 13.5891243,12.1269 13.7648958,12.2151061 L14.5696455,11.5971428 C14.7481805,11.4600467 14.9963157,11.4591547 15.1758317,11.5949637 C15.5751772,11.8970803 15.9307586,12.2527225 16.2325891,12.6520364 C16.3683239,12.83161 16.3673275,13.0797465 16.2301549,13.2582242 L15.6116526,14.0629687 C15.6995625,14.2384451 15.7748954,14.4200891 15.8370396,14.6068134 L16.8427906,14.7384371 C17.0661115,14.7676634 17.2423274,14.942591 17.2731914,15.1656914 C17.343461,15.673635 17.3427531,16.1559998 17.2732128,16.6598355 C17.2424109,16.8830033 17.0661692,17.0580114 16.8427906,17.0872452 L15.8370396,17.218869 C15.7748954,17.4055933 15.6995625,17.5872373 15.6116526,17.7627136 Z M14.6190072,18.1121731 C14.4928661,17.9480486 14.4809,17.7231663 14.5889119,17.5465823 C14.7588416,17.2687719 14.8844113,16.9667518 14.9610863,16.6485113 C15.0095719,16.4472717 15.1770466,16.2967157 15.3822945,16.2698547 L16.3191546,16.1472468 C16.3277613,15.9907306 16.3278054,15.8354237 16.3191883,15.67844 L15.3822945,15.5558276 C15.1770466,15.5289666 15.0095719,15.3784106 14.9610863,15.177171 C14.8844113,14.8589305 14.7588416,14.5569104 14.5889119,14.2791 C14.4809,14.102516 14.4928661,13.8776337 14.6190072,13.7135092 L15.194903,12.9642009 C15.0903001,12.8478714 14.9796011,12.7371507 14.8632644,12.6324926 L14.113842,13.2079703 C13.9496023,13.3340892 13.7246155,13.3459171 13.5480572,13.2377146 C13.2702604,13.0674688 12.967876,12.9415842 12.6497693,12.8649676 C12.4485124,12.8164945 12.2979381,12.6490128 12.2710749,12.4437511 L12.1484195,11.5065393 C11.991537,11.4978694 11.8361368,11.4978242 11.6793577,11.5063808 L11.5567532,12.4428948 C11.5298696,12.6482444 11.3791721,12.815766 11.1778021,12.8641526 C10.8585431,12.9408665 10.5561764,13.0664347 10.278196,13.2365586 C10.1016576,13.3446002 9.87680077,13.3327032 9.7126488,13.206636 L8.96297329,12.6308923 C8.84735885,12.7350285 8.73634879,12.8458789 8.63154579,12.9620541 L9.20706861,13.7108771 C9.33340742,13.8752588 9.34519512,14.1005561 9.23670026,14.2772244 C9.06588685,14.5553696 8.94000373,14.8578557 8.86332804,15.1772208 C8.81496943,15.3786412 8.64741924,15.5293863 8.44202638,15.5562663 L7.50608141,15.6787545 C7.49798466,15.8340231 7.49793534,15.9905103 7.50610196,16.1469306 L8.44202638,16.269416 C8.64741924,16.296296 8.81496943,16.4470411 8.86332804,16.6484616 C8.94000373,16.9678266 9.06588685,17.2703127 9.23670026,17.5484579 C9.34519512,17.7251263 9.33340742,17.9504235 9.20706861,18.1148052 L8.63152631,18.8636536 C8.73559874,18.9789925 8.84651573,19.0898494 8.96293642,19.1946884 L9.71254612,18.6186865 C9.87684786,18.4924367 10.1019959,18.4806079 10.2786223,18.5889462 C10.5561566,18.7591788 10.8583461,18.8847685 11.1778021,18.9615297 C11.3791646,19.0099145 11.5298592,19.1774257 11.5567504,19.3827665 L11.6793792,20.3191566 C11.8360878,20.3277906 11.9914805,20.3277877 12.1484211,20.3191303 L12.2710749,19.3819312 C12.2979381,19.1766695 12.4485124,19.0091878 12.6497693,18.9607147 C12.968073,18.8840507 13.2702817,18.758144 13.5476308,18.5877907 C13.7242769,18.4792911 13.9495551,18.4910506 14.1139447,18.6173522 L14.8632903,19.1930797 C14.9794883,19.088489 15.0901618,18.9777558 15.1948226,18.8613769 L14.6190072,18.1121731 Z" id="Stroke"></path>
        </g>
    </g>
</svg>