<?xml version="1.0" encoding="UTF-8"?>
<svg width="24px" height="24px" viewBox="0 0 24 24" version="1.1" xmlns="http://www.w3.org/2000/svg" xmlns:xlink="http://www.w3.org/1999/xlink">
    <!-- Generator: Sketch 45.1 (43504) - http://www.bohemiancoding.com/sketch -->
    <title>Mymoid-font/profile</title>
    <desc>Created with Sketch.</desc>
    <defs></defs>
    <g id="Export-Fonts" stroke="none" stroke-width="1" fill="none" fill-rule="evenodd">
        <g id="Mymoid-font/profile" fill-rule="nonzero" fill="#000000">
            <path d="M10.425,12.613 L10.425,12.715 C10.278,12.851 9.717,13.239 7.628,14.047 C7.318,14.168 7.109,14.474 7.109,14.808 L7.109,15.43 C7.109,15.706 7.333,15.93 7.609,15.93 C7.885,15.93 8.109,15.706 8.109,15.43 L8.109,14.933 C10.938,13.83 11.288,13.38 11.402,13.014 C11.417,12.966 11.424,12.916 11.424,12.866 L11.424,12.423 C11.424,12.292 11.373,12.167 11.281,12.073 C11.043,11.83 10.857,11.486 10.743,11.079 C10.712,10.968 10.644,10.871 10.55,10.805 C10.503,10.772 10.471,10.718 10.463,10.658 C10.457,10.616 10.461,10.551 10.512,10.488 C10.585,10.399 10.624,10.287 10.624,10.173 L10.624,9.177 C10.624,8.363 11.087,7.95 12,7.95 C12.938,7.95 13.375,8.34 13.375,9.177 L13.375,10.17 C13.375,10.285 13.415,10.397 13.487,10.486 C13.539,10.549 13.543,10.614 13.537,10.657 C13.528,10.717 13.497,10.77 13.45,10.803 C13.355,10.869 13.287,10.966 13.256,11.077 C13.142,11.484 12.956,11.828 12.718,12.071 C12.627,12.165 12.575,12.29 12.575,12.421 L12.575,12.864 C12.575,12.914 12.583,12.965 12.597,13.012 C12.711,13.379 13.062,13.829 15.89,14.931 L15.89,15.428 C15.89,15.704 16.114,15.928 16.39,15.928 C16.666,15.928 16.89,15.704 16.89,15.428 L16.89,14.806 C16.89,14.468 16.68,14.162 16.37,14.044 C14.213,13.211 13.685,12.83 13.574,12.734 L13.574,12.61 C13.83,12.303 14.034,11.923 14.172,11.496 C14.363,11.309 14.489,11.061 14.526,10.792 C14.564,10.519 14.51,10.249 14.374,10.014 L14.374,9.177 C14.374,7.783 13.486,6.95 11.999,6.95 C10.534,6.95 9.623,7.803 9.623,9.177 L9.623,10.017 C9.487,10.25 9.434,10.52 9.471,10.792 C9.508,11.061 9.634,11.31 9.825,11.497 C9.965,11.926 10.169,12.306 10.425,12.613 Z" id="Shape"></path>
            <path d="M10.081,4.955 C10.156,5.561 10.679,6 11.326,6 L12.675,6 C13.322,6 13.847,5.564 13.92,4.966 L14.368,1.4 C14.412,1.056 14.304,0.717 14.064,0.445 C13.819,0.167 13.467,0 13.123,0 L10.878,0 C10.535,0 10.185,0.165 9.941,0.441 C9.701,0.713 9.589,1.067 9.632,1.414 L10.081,4.955 Z M10.691,1.102 C10.75,1.035 10.83,1 10.878,1 L13.123,1 C13.17,1 13.254,1.037 13.314,1.106 C13.347,1.143 13.384,1.203 13.376,1.273 L12.928,4.841 C12.914,4.951 12.787,5 12.675,5 L11.326,5 C11.211,5 11.087,4.942 11.073,4.831 L10.625,1.289 C10.615,1.209 10.656,1.143 10.691,1.102 Z" id="Shape"></path>
            <path d="M17.644,4 L16.001,4 C15.725,4 15.501,4.224 15.501,4.5 C15.501,4.776 15.725,5 16.001,5 L17.644,5 C18.392,5 19.001,5.554 19.001,6.235 L19.001,17 L5,17 L5,6.236 C5,5.554 5.609,5 6.358,5 L8,5 C8.276,5 8.5,4.776 8.5,4.5 C8.5,4.224 8.277,4 8,4 L6.358,4 C5.058,4 4,5.003 4,6.236 L4,21.875 C4,23.087 5.014,24.001 6.357,24.001 L17.643,24.001 C18.987,24.001 20,23.087 20,21.875 L20,6.236 C20.001,5.003 18.943,4 17.644,4 Z M17.644,23.001 L6.358,23.001 C5.7,23.001 5,22.606 5,21.875 L5,18.001 L19,18.001 L19,21.875 C19.001,22.606 18.302,23.001 17.644,23.001 Z" id="Shape"></path>
            <path d="M16.392,20.001 L12.609,20.001 C12.333,20.001 12.109,20.225 12.109,20.501 C12.109,20.777 12.333,21.001 12.609,21.001 L16.392,21.001 C16.668,21.001 16.892,20.777 16.892,20.501 C16.892,20.225 16.668,20.001 16.392,20.001 Z" id="Shape"></path>
            <path d="M9.609,20.001 L7.609,20.001 C7.333,20.001 7.109,20.225 7.109,20.501 C7.109,20.777 7.333,21.001 7.609,21.001 L9.609,21.001 C9.885,21.001 10.109,20.777 10.109,20.501 C10.109,20.225 9.885,20.001 9.609,20.001 Z" id="Shape"></path>
            <path d="M12,3.02 C12.13,3.02 12.26,2.97 12.36,2.87 C12.45,2.78 12.5,2.65 12.5,2.52 C12.5,2.39 12.45,2.26 12.35,2.16 C12.16,1.98 11.83,1.99 11.65,2.17 C11.55,2.26 11.5,2.39 11.5,2.52 C11.5,2.66 11.55,2.78 11.65,2.88 C11.74,2.97 11.87,3.02 12,3.02 Z" id="Shape"></path>
        </g>
    </g>
</svg>