<?xml version="1.0" encoding="UTF-8"?>
<svg width="24px" height="24px" viewBox="0 0 24 24" version="1.1" xmlns="http://www.w3.org/2000/svg" xmlns:xlink="http://www.w3.org/1999/xlink">
    <!-- Generator: Sketch 45.1 (43504) - http://www.bohemiancoding.com/sketch -->
    <title>Mymoid-font/settings</title>
    <desc>Created with Sketch.</desc>
    <defs></defs>
    <g id="Export-Fonts" stroke="none" stroke-width="1" fill="none" fill-rule="evenodd">
        <g id="Mymoid-font/settings" fill-rule="nonzero" fill="#000000">
            <path d="M2.5,13 C1.12158,13 0,14.12109 0,15.5 C0,16.87891 1.12158,18 2.5,18 C3.87842,18 5,16.87891 5,15.5 C5,14.12109 3.87842,13 2.5,13 Z M2.5,17 C1.67285,17 1,16.32715 1,15.5 C1,14.67285 1.67285,14 2.5,14 C3.32715,14 4,14.67285 4,15.5 C4,16.32715 3.32715,17 2.5,17 Z" id="Shape"></path>
            <path d="M2.5,19 C2.22363,19 2,19.22363 2,19.5 L2,22.5 C2,22.77637 2.22363,23 2.5,23 C2.77637,23 3,22.77637 3,22.5 L3,19.5 C3,19.22363 2.77637,19 2.5,19 Z" id="Shape"></path>
            <path d="M2.5,12 C2.77637,12 3,11.77637 3,11.5 L3,1.5 C3,1.22363 2.77637,1 2.5,1 C2.22363,1 2,1.22363 2,1.5 L2,11.5 C2,11.77637 2.22363,12 2.5,12 Z" id="Shape"></path>
            <path d="M11.5,11 C10.12158,11 9,12.12158 9,13.5 C9,14.87891 10.12158,16 11.5,16 C12.87842,16 14,14.87891 14,13.5 C14,12.12158 12.87842,11 11.5,11 Z M11.5,15 C10.67285,15 10,14.32715 10,13.5 C10,12.67285 10.67285,12 11.5,12 C12.32715,12 13,12.67285 13,13.5 C13,14.32715 12.32715,15 11.5,15 Z" id="Shape"></path>
            <path d="M11.5,17 C11.22363,17 11,17.22363 11,17.5 L11,22.5 C11,22.77637 11.22363,23 11.5,23 C11.77637,23 12,22.77637 12,22.5 L12,17.5 C12,17.22363 11.77637,17 11.5,17 Z" id="Shape"></path>
            <path d="M11.5,10 C11.77637,10 12,9.77637 12,9.5 L12,1.5 C12,1.22363 11.77637,1 11.5,1 C11.22363,1 11,1.22363 11,1.5 L11,9.5 C11,9.77637 11.22363,10 11.5,10 Z" id="Shape"></path>
            <path d="M20.5,6 C19.12109,6 18,7.12158 18,8.5 C18,9.87842 19.12109,11 20.5,11 C21.87891,11 23,9.87842 23,8.5 C23,7.12158 21.87891,6 20.5,6 Z M20.5,10 C19.67285,10 19,9.32715 19,8.5 C19,7.67285 19.67285,7 20.5,7 C21.32715,7 22,7.67285 22,8.5 C22,9.32715 21.32715,10 20.5,10 Z" id="Shape"></path>
            <path d="M20.5,12 C20.22363,12 20,12.22363 20,12.5 L20,22.5 C20,22.77637 20.22363,23 20.5,23 C20.77637,23 21,22.77637 21,22.5 L21,12.5 C21,12.22363 20.77637,12 20.5,12 Z" id="Shape"></path>
            <path d="M20.5,5 C20.77637,5 21,4.77637 21,4.5 L21,1.5 C21,1.22363 20.77637,1 20.5,1 C20.22363,1 20,1.22363 20,1.5 L20,4.5 C20,4.77637 20.22363,5 20.5,5 Z" id="Shape"></path>
        </g>
    </g>
</svg>