<?xml version="1.0" encoding="UTF-8"?>
<svg width="24px" height="24px" viewBox="0 0 24 24" version="1.1" xmlns="http://www.w3.org/2000/svg" xmlns:xlink="http://www.w3.org/1999/xlink">
    <!-- Generator: Sketch 45.1 (43504) - http://www.bohemiancoding.com/sketch -->
    <title>Mymoid-font/status_show</title>
    <desc>Created with Sketch.</desc>
    <defs></defs>
    <g id="Export-Fonts" stroke="none" stroke-width="1" fill="none" fill-rule="evenodd">
        <g id="Mymoid-font/status_show" fill-rule="nonzero" fill="#000000">
            <path d="M12.046,6.969 C9.341,6.969 7.14,9.23 7.14,12.01 C7.14,14.79 9.341,17.052 12.046,17.052 C14.751,17.052 16.952,14.79 16.952,12.01 C16.952,9.23 14.751,6.969 12.046,6.969 Z M12.046,16.051 C9.892,16.051 8.14,14.238 8.14,12.009 C8.14,9.78 9.892,7.968 12.046,7.968 C14.2,7.968 15.952,9.78 15.952,12.009 C15.952,14.238 14.2,16.051 12.046,16.051 Z" id="Shape"></path>
            <path d="M12.046,9.642 C10.771,9.642 9.734,10.704 9.734,12.01 C9.734,13.316 10.771,14.377 12.046,14.377 C13.32,14.377 14.358,13.315 14.358,12.01 C14.358,10.705 13.32,9.642 12.046,9.642 Z M12.046,13.377 C11.322,13.377 10.734,12.764 10.734,12.01 C10.734,11.256 11.322,10.642 12.046,10.642 C12.769,10.642 13.358,11.256 13.358,12.01 C13.358,12.764 12.769,13.377 12.046,13.377 Z" id="Shape"></path>
            <path d="M23.555,11.788 C21.177,6.983 16.768,3.999 12.046,3.999 C7.325,3.999 2.915,6.983 0.537,11.788 C0.468,11.928 0.468,12.092 0.537,12.231 C2.914,17.036 7.324,20.02 12.046,20.02 C16.768,20.02 21.178,17.036 23.555,12.231 C23.624,12.092 23.624,11.927 23.555,11.788 Z M12.046,19.02 C7.779,19.02 3.776,16.34 1.546,12.009 C3.777,7.678 7.78,4.998 12.046,4.998 C16.313,4.998 20.316,7.678 22.546,12.009 C20.315,16.341 16.312,19.02 12.046,19.02 Z" id="Shape"></path>
        </g>
    </g>
</svg>