<?xml version="1.0" encoding="UTF-8"?>
<svg width="24px" height="24px" viewBox="0 0 24 24" version="1.1" xmlns="http://www.w3.org/2000/svg" xmlns:xlink="http://www.w3.org/1999/xlink">
    <!-- Generator: Sketch 45.1 (43504) - http://www.bohemiancoding.com/sketch -->
    <title>Mymoid-font/status_hide</title>
    <desc>Created with Sketch.</desc>
    <defs></defs>
    <g id="Export-Fonts" stroke="none" stroke-width="1" fill="none" fill-rule="evenodd">
        <g id="Mymoid-font/status_hide" fill-rule="nonzero" fill="#000000">
            <path d="M23.597,0.409 C23.402,0.214 23.085,0.214 22.89,0.409 L0.53,22.768 C0.335,22.963 0.335,23.28 0.53,23.475 C0.628,23.573 0.756,23.621 0.884,23.621 C1.012,23.621 1.14,23.572 1.238,23.475 L23.597,1.116 C23.792,0.921 23.792,0.605 23.597,0.409 Z" id="Shape"></path>
            <path d="M14.146,8.15 C14.25,7.894 14.127,7.603 13.872,7.499 C12.059,6.76 10.066,7.164 8.677,8.552 C7.285,9.943 6.88,11.935 7.62,13.75 C7.699,13.944 7.886,14.062 8.083,14.062 C8.146,14.062 8.21,14.05 8.271,14.025 C8.527,13.921 8.65,13.629 8.545,13.374 C7.961,11.938 8.281,10.361 9.383,9.26 C10.483,8.161 12.057,7.842 13.494,8.426 C13.748,8.529 14.041,8.405 14.146,8.15 Z" id="Shape"></path>
            <path d="M4.47,17.266 C4.561,17.335 4.668,17.37 4.774,17.37 C4.924,17.37 5.072,17.303 5.171,17.175 C5.339,16.956 5.298,16.642 5.079,16.474 C3.555,15.303 2.251,13.74 1.295,11.943 C4.374,6.151 10.586,3.553 16.161,5.763 C16.419,5.864 16.709,5.739 16.81,5.482 C16.912,5.226 16.787,4.935 16.53,4.833 C10.392,2.399 3.56,5.293 0.286,11.715 C0.213,11.858 0.213,12.027 0.286,12.169 C1.318,14.193 2.765,15.956 4.47,17.266 Z" id="Shape"></path>
            <path d="M23.841,11.716 C22.81,9.694 21.363,7.931 19.657,6.619 C19.438,6.452 19.126,6.493 18.956,6.711 C18.788,6.93 18.829,7.244 19.048,7.412 C20.573,8.584 21.877,10.147 22.832,11.943 C19.753,17.735 13.539,20.333 7.965,18.123 C7.708,18.02 7.418,18.146 7.316,18.403 C7.214,18.66 7.34,18.951 7.597,19.052 C9.057,19.631 10.556,19.908 12.038,19.908 C16.784,19.908 21.346,17.062 23.841,12.169 C23.914,12.027 23.914,11.858 23.841,11.716 Z" id="Shape"></path>
            <path d="M10.256,16.386 C10.857,16.631 11.478,16.75 12.089,16.75 C13.324,16.75 14.521,16.263 15.449,15.335 C16.668,14.117 17.13,12.439 16.731,10.822 C16.674,10.591 16.6,10.361 16.507,10.134 C16.403,9.878 16.111,9.753 15.856,9.86 C15.6,9.964 15.477,10.256 15.582,10.511 C15.685,10.764 15.75,11.022 15.797,11.281 C16.019,12.49 15.65,13.72 14.741,14.628 C13.642,15.727 12.069,16.043 10.633,15.46 C10.379,15.355 10.085,15.478 9.982,15.734 C9.956,15.798 9.944,15.864 9.945,15.929 C9.947,16.125 10.064,16.309 10.256,16.386 Z" id="Shape"></path>
            <path d="M11.471,9.567 C10.591,9.787 9.908,10.47 9.688,11.35 C9.622,11.618 9.785,11.889 10.053,11.956 C10.094,11.966 10.134,11.971 10.174,11.971 C10.398,11.971 10.602,11.819 10.659,11.592 C10.788,11.071 11.192,10.668 11.713,10.538 C11.981,10.471 12.144,10.2 12.077,9.932 C12.01,9.663 11.736,9.497 11.471,9.567 Z" id="Shape"></path>
            <path d="M12.535,14.333 C12.575,14.333 12.616,14.328 12.657,14.318 C13.535,14.099 14.219,13.416 14.44,12.536 C14.505,12.276 14.351,12.016 14.096,11.939 C14.088,11.937 14.082,11.931 14.074,11.929 C14.056,11.925 14.038,11.929 14.02,11.927 C13.971,11.92 13.922,11.914 13.874,11.921 C13.681,11.951 13.517,12.092 13.467,12.293 C13.337,12.814 12.934,13.217 12.414,13.347 C12.146,13.414 11.983,13.685 12.05,13.953 C12.107,14.181 12.311,14.333 12.535,14.333 Z" id="Shape"></path>
        </g>
    </g>
</svg>