<?xml version="1.0" encoding="UTF-8"?>
<svg width="24px" height="24px" viewBox="0 0 24 24" version="1.1" xmlns="http://www.w3.org/2000/svg" xmlns:xlink="http://www.w3.org/1999/xlink">
    <!-- Generator: Sketch 45.1 (43504) - http://www.bohemiancoding.com/sketch -->
    <title>Mymoid-font/user</title>
    <desc>Created with Sketch.</desc>
    <defs></defs>
    <g id="Export-Fonts" stroke="none" stroke-width="1" fill="none" fill-rule="evenodd">
        <g id="Mymoid-font/user" fill-rule="nonzero" fill="#000000">
            <path d="M16.9775,5.9137 C16.9775,3.16570187 14.7492171,0.9377 12.0005,0.9377 C9.25264237,0.9377 7.0245,3.16584237 7.0245,5.9137 C7.0245,9.07481301 9.55837625,12.8817 12.0005,12.8817 C14.4434552,12.8817 16.9775,9.07503994 16.9775,5.9137 Z M17.9775,5.9137 C17.9775,9.56194828 15.1018967,13.8817 12.0005,13.8817 C8.89989887,13.8817 6.0245,9.5617106 6.0245,5.9137 C6.0245,2.61355763 8.70035763,-0.0623 12.0005,-0.0623 C15.3014736,-0.0623 17.9775,2.61338888 17.9775,5.9137 Z" id="Stroke"></path>
            <path d="M15.873495,14.565129 C15.9673936,14.3574264 16.1898828,14.2395213 16.4144768,14.2784431 C19.1355309,14.749998 21.6457424,15.6427958 23.7611115,16.88384 C23.9141126,16.9736027 24.0081,17.1377115 24.0081,17.3151 L24.0081,20.9591 C24.0081,21.1849008 23.856762,21.382681 23.6388138,21.4417115 C22.9960301,21.6158075 20.3701307,22.3908983 20.5421468,22.3411097 C17.1129528,23.3336604 14.6551727,23.8071 12.0011,23.8071 C9.35125839,23.8071 6.89911198,23.3349388 3.47412423,22.3442278 C3.6718176,22.4014125 1.02213762,21.6200364 0.377598307,21.4457689 C0.159545408,21.3868129 0.0081,21.1889825 0.0081,20.9631 L0.0081,17.3071 C0.0081,17.1296689 0.102132107,16.9655274 0.255191369,16.8757797 C2.36445209,15.6389953 4.86913589,14.7494376 7.58671615,14.2784443 C7.81120116,14.2395381 8.03360136,14.3573078 8.12758033,14.5648534 C9.0604936,16.625123 10.5543766,18.0051 12.0011,18.0051 C13.4476889,18.0051 14.9424686,16.6245468 15.873495,14.565129 Z M12.0011,19.0051 C10.1754908,19.0051 8.47414324,17.5184599 7.38480031,15.3313379 C5.03203885,15.7769917 2.86185442,16.5503935 1.0081,17.5962951 L1.0081,20.5836507 C1.97059239,20.8571302 3.93204478,21.4356905 3.75199267,21.3836087 C7.09409772,22.3503451 9.46623259,22.8071 12.0011,22.8071 C14.5401479,22.8071 16.917847,22.3490863 20.2641174,21.3805372 C20.1065032,21.4261572 22.0507324,20.8521522 23.0081,20.579792 L23.0081,17.6042011 C21.1485251,16.5542192 18.9730216,15.7778023 16.6166063,15.3313788 C15.5288492,17.5178722 13.8264791,19.0051 12.0011,19.0051 Z" id="Stroke"></path>
        </g>
    </g>
</svg>