<?xml version="1.0" encoding="UTF-8"?>
<svg width="24px" height="24px" viewBox="0 0 24 24" version="1.1" xmlns="http://www.w3.org/2000/svg" xmlns:xlink="http://www.w3.org/1999/xlink">
    <!-- Generator: Sketch 45.1 (43504) - http://www.bohemiancoding.com/sketch -->
    <title>Mymoid-font/wallet</title>
    <desc>Created with Sketch.</desc>
    <defs></defs>
    <g id="Export-Fonts" stroke="none" stroke-width="1" fill="none" fill-rule="evenodd">
        <g id="Mymoid-font/wallet" fill-rule="nonzero" fill="#000000">
            <path d="M23.5020747,10.96639 L21.9087137,10.96639 L21.9087137,7.3813278 C21.9087137,7.10647303 21.6856432,6.88340249 21.4107884,6.88340249 L2.09128631,6.88340249 C1.48780083,6.88340249 0.995850622,6.21319502 0.995850622,5.38962656 C0.995850622,4.56605809 1.48780083,3.89585062 2.09128631,3.89585062 L21.5103734,3.89585062 C21.7852282,3.89585062 22.0082988,3.67278008 22.0082988,3.39792531 C22.0082988,3.12307054 21.7852282,2.9 21.5103734,2.9 L2.09128631,2.9 C0.918174274,2.9 -7.10542736e-15,3.99344398 -7.10542736e-15,5.38962656 C-7.10542736e-15,5.41352697 0.00497925311,5.43643154 0.00597510373,5.46033195 C0.00531120332,5.46697095 0.00331950207,9.95792531 -7.02250614e-15,18.933195 C-7.02250614e-15,20.1063071 0.918174274,21.0254772 2.09128631,21.0254772 L21.5103734,21.0254772 C21.7852282,21.0254772 22.0082988,20.8024066 22.0082988,20.5275519 L22.0082988,16.9414938 L23.5020747,16.9414938 C23.7769295,16.9414938 24,16.7184232 24,16.4435685 L24,11.4643154 C24,11.1884647 23.7769295,10.96639 23.5020747,10.96639 Z M21.0124481,20.0286307 L2.09128631,20.0286307 C1.46688797,20.0286307 0.995850622,19.5565975 0.995850622,18.9321992 L0.995850622,7.51178423 C1.31352697,7.74082988 1.68497925,7.87925311 2.09128631,7.87925311 L20.9128631,7.87925311 L20.9128631,10.96639 L19.0207469,10.96639 C17.3447303,10.96639 16.033195,12.2779253 16.033195,13.9539419 C16.033195,15.6299585 17.3447303,16.9414938 19.0207469,16.9414938 L21.0124481,16.9414938 L21.0124481,20.0286307 Z M23.0041494,15.9456432 L19.0207469,15.9456432 C17.9043983,15.9456432 17.0290456,15.0702905 17.0290456,13.9539419 C17.0290456,12.8375934 17.9043983,11.9622407 19.0207469,11.9622407 L23.0041494,11.9622407 L23.0041494,15.9456432 Z" id="Shape"></path>
            <path d="M21.4,5 L2.3,5 C2.023,5 1.8,5.223 1.8,5.5 C1.8,5.777 2.023,6 2.3,6 L21.4,6 C21.676,6 21.9,5.776 21.9,5.5 C21.9,5.224 21.677,5 21.4,5 Z" id="Shape"></path>
            <path d="M19.05,13.65 C18.95,13.74 18.9,13.87 18.9,14 C18.9,14.13 18.951,14.26 19.041,14.35 C19.141,14.451 19.27,14.5 19.4,14.5 C19.531,14.5 19.661,14.45 19.76,14.35 C19.85,14.26 19.9,14.13 19.9,14 C19.9,13.87 19.85,13.74 19.751,13.64 C19.56,13.46 19.24,13.46 19.05,13.65 Z" id="Shape"></path>
        </g>
    </g>
</svg>