<?xml version="1.0" encoding="UTF-8"?>
<svg width="190px" height="36px" viewBox="0 0 190 36" version="1.1" xmlns="http://www.w3.org/2000/svg" xmlns:xlink="http://www.w3.org/1999/xlink">
    <!-- Generator: Sketch 43.2 (39069) - http://www.bohemiancoding.com/sketch -->
    <title>Combined Shape</title>
    <desc>Created with Sketch.</desc>
    <defs></defs>
    <g id="1.-Login-/-Sign-Up" stroke="none" stroke-width="1" fill="none" fill-rule="evenodd">
        <g id="Mockup/Screens/1.1a-Register-Step-1---OK" transform="translate(-625.000000, -150.000000)" fill="#FFFFFF">
            <path d="M660.585172,154.422737 C665.369048,182.766692 665.027461,180.66347 665.027461,181.363806 C665.027461,185.834884 658.38285,186.324289 657.607221,181.69432 L654.723941,161.040221 L649.375367,178.923979 C648.791292,180.876616 647.054569,182.214174 645.016674,182.214174 L645.016674,182.204763 C642.97878,182.204763 641.241504,180.86665 640.657429,178.914567 L635.308855,161.030255 L632.425574,181.684355 C631.649945,186.314877 625.005334,185.824919 625.005334,181.353841 C625.005334,180.654058 624.663747,182.757281 629.447624,154.412772 C630.326227,149.132294 637.877123,148.39099 639.562912,153.892918 L645.016674,172.468154 L645.016674,172.477566 L650.469884,153.902883 C652.155673,148.400955 659.706568,149.142259 660.585172,154.422737 Z M728.35959,154.442499 C733.143448,182.784423 732.801863,180.681351 732.801863,181.381637 C732.801863,185.852394 726.157277,186.341764 725.381651,181.712127 L722.498381,161.059508 L717.149827,178.941985 C716.565754,180.894481 714.829038,182.231944 712.791151,182.231944 L712.791151,182.222533 C710.753264,182.222533 709.015994,180.884517 708.431922,178.932574 L703.083368,161.049544 L700.200098,181.702163 C699.424472,186.332353 692.779886,185.84243 692.779886,181.371672 C692.779886,180.67194 692.4383,182.775012 697.222159,154.432535 C698.100759,149.152435 705.651626,148.411184 707.337409,153.912718 L712.791151,172.486623 L712.791151,172.496034 L718.24434,153.922682 C719.930123,148.421148 727.48099,149.162399 728.35959,154.442499 Z M687.08774,150.671126 C690.487553,148.701881 694.253866,152.679679 691.956321,155.964891 L682.786071,168.537169 L682.786071,181.108892 C682.786071,183.181112 681.079798,184.938318 678.966056,184.938318 C676.851761,184.938318 675.145488,183.181112 675.145488,181.108892 L675.145488,168.537169 L665.975792,155.964891 C663.678247,152.679679 667.44456,148.701881 670.84382,150.671126 C672.002557,151.34212 671.593982,151.022678 678.966056,161.872627 C686.337577,151.022678 685.929002,151.34212 687.08774,150.671126 Z M771.376638,153.738652 C771.376638,150.465066 775.449659,148.715056 777.804228,151.115575 C779.194381,152.538946 778.916461,151.825877 778.892101,181.173554 C778.890441,183.269026 777.192472,184.966441 775.096446,184.966441 C773.041943,184.966441 771.376638,183.301136 771.376638,181.246633 L771.376638,153.738652 Z M811.923105,158.077692 C817.945441,167.924471 813.077967,184.569216 798.052023,184.569216 C788.509183,184.569216 787.941717,184.882015 786.470735,183.506256 C784.968749,182.096172 785.305907,183.273733 785.334696,154.239961 C785.33691,152.218121 786.96789,150.577176 788.989176,150.562782 C797.605801,150.503544 806.60498,149.380792 811.923105,158.077692 Z M804.361137,174.809356 C807.514586,171.038614 807.769254,164.06072 804.219408,160.039186 C801.063191,156.466088 797.275286,157.014177 792.851266,157.014177 L792.851266,177.952287 C797.554313,177.952287 801.267478,178.507573 804.361137,174.809356 Z M751.614307,150.041876 C769.576127,150.041876 774.19613,176.097697 758.184179,183.59932 C752.246547,186.38627 744.552816,185.152793 739.703612,179.771001 C729.736142,168.730052 736.72843,150.041876 751.614307,150.041876 Z M747.93436,176.502951 C753.5603,179.240628 760.402002,174.895777 760.402002,167.522595 C760.402002,156.595692 746.904617,154.123201 743.294426,163.770676 C741.517289,168.509709 743.364736,174.286235 747.93436,176.502951 Z" id="Combined-Shape"></path>
        </g>
    </g>
</svg>