<?xml version="1.0" encoding="UTF-8"?>
<svg width="142px" height="27px" viewBox="0 0 142 27" version="1.1" xmlns="http://www.w3.org/2000/svg" xmlns:xlink="http://www.w3.org/1999/xlink">
    <!-- Generator: Sketch 45.2 (43514) - http://www.bohemiancoding.com/sketch -->
    <title>General Assets/Logotype/Color</title>
    <desc>Created with Sketch.</desc>
    <defs>
        <linearGradient x1="0%" y1="96.467242%" x2="100%" y2="0%" id="linearGradient-1">
            <stop stop-color="#346376" offset="0%"></stop>
            <stop stop-color="#18B672" offset="100%"></stop>
        </linearGradient>
    </defs>
    <g id="Structures:-General-Navigation-(Stable)" stroke="none" stroke-width="1" fill="none" fill-rule="evenodd">
        <g id="Mockup/Dashboard-Environment/Option-2:-Menu-Collapsed" transform="translate(-96.000000, -27.000000)" fill-rule="nonzero" fill="url(#linearGradient-1)">
            <g id="General-Assets/Logotype/Color" transform="translate(96.000000, 27.000000)">
                <path d="M61.0404295,2.21424437 C61.0953008,2.31627388 61.1443365,2.42292924 61.1869491,2.53394879 L65.5934933,14.0144111 L70.0000375,2.53394879 C70.0426501,2.42292924 70.0916858,2.31627388 70.1465571,2.21424437 C70.7390169,0.994382692 71.9888561,0.153595385 73.4348599,0.153595385 C75.1922199,0.153595385 76.6598434,1.39544423 77.0098317,3.0503492 C77.0338804,3.13875625 77.0537488,3.2291981 77.0691821,3.32149264 L80.4010904,23.2470366 C80.6509936,24.7415129 79.6433747,26.1558305 78.1505106,26.4060036 C76.6576464,26.6561767 75.2448543,25.6474697 74.9949511,24.1529935 L72.7430555,10.6861623 L68.1521191,22.6470253 C67.9172006,23.2590635 67.4870715,23.7384655 66.9601831,24.0413899 C66.8389214,24.1110355 66.7107741,24.1722647 66.5762081,24.2240268 C66.4042854,24.2901584 66.2298074,24.3377897 66.0549632,24.3678955 C65.8967006,24.3950901 65.7353574,24.4084729 65.5727239,24.4072466 C64.4741115,24.3955389 63.4498749,23.7282529 63.0348675,22.6470253 L58.4439311,10.6861623 L56.1920355,24.1529935 C55.9421323,25.6474697 54.5293402,26.6561767 53.036476,26.4060036 C51.5436119,26.1558305 50.535993,24.7415129 50.7858962,23.2470366 L54.1178044,3.32149264 C54.1332378,3.2291981 54.1531062,3.13875625 54.1771549,3.0503492 C54.5271432,1.39544423 55.9947667,0.153595385 57.7521267,0.153595385 C59.1981305,0.153595385 60.4479697,0.994382692 61.0404295,2.21424437 L61.0404295,2.21424437 Z M10.4399557,2.21424437 C10.494827,2.31627388 10.5438627,2.42292924 10.5864753,2.53394879 L14.9930195,14.0144111 L19.3995637,2.53394879 C19.4421763,2.42292924 19.491212,2.31627388 19.5460833,2.21424437 C20.138543,0.994382692 21.3883823,0.153595385 22.8343861,0.153595385 C24.5917461,0.153595385 26.0593696,1.39544423 26.4093579,3.0503492 C26.4334065,3.13875625 26.453275,3.2291981 26.4687083,3.32149264 L29.8006166,23.2470366 C30.0505198,24.7415129 29.0429009,26.1558305 27.5500368,26.4060036 C26.0571726,26.6561767 24.6443805,25.6474697 24.3944773,24.1529935 L22.1425817,10.6861623 L17.5516453,22.6470253 C17.3167268,23.2590635 16.8865977,23.7384655 16.3597093,24.0413899 C16.2384476,24.1110355 16.1103003,24.1722647 15.9757343,24.2240268 C15.8038116,24.2901584 15.6293335,24.3377897 15.4544894,24.3678955 C15.2962268,24.3950901 15.1348836,24.4084729 14.9722501,24.4072466 C13.8736377,24.3955389 12.8494011,23.7282529 12.4343937,22.6470253 L7.84345733,10.6861623 L5.59156167,24.1529935 C5.34165846,25.6474697 3.92886637,26.6561767 2.43600223,26.4060036 C0.943138089,26.1558305 -0.064480824,24.7415129 0.185422396,23.2470366 L3.51733064,3.32149264 C3.53276394,3.2291981 3.55263244,3.13875625 3.57668107,3.0503492 C3.92666941,1.39544423 5.39429292,0.153595385 7.1516529,0.153595385 C8.5976567,0.153595385 9.84749594,0.994382692 10.4399557,2.21424437 L10.4399557,2.21424437 Z M43.3225136,14.3361137 L43.3225136,23.4793447 C43.3225136,25.1065678 42.0033886,26.4256928 40.3761655,26.4256928 C38.7489424,26.4256928 37.4298174,25.1065678 37.4298174,23.4793447 L37.4298174,14.5634153 L30.6258824,4.78275878 C29.696633,3.44696286 30.0262042,1.61078087 31.3620001,0.681531533 C32.697796,-0.247717806 34.533978,0.0818533193 35.4632273,1.41764924 L40.297104,8.36634698 L45.1309807,1.41764924 C46.06023,0.0818533193 47.896412,-0.247717806 49.232208,0.681531533 C50.5680039,1.61078087 50.897575,3.44696286 49.9683257,4.78275878 L43.3225136,14.3361137 Z M129.540073,20.4057815 C133.032125,20.4057815 135.959923,17.2405545 135.959923,13.226382 C135.959923,9.25383457 133.09253,6.1127177 129.648522,6.04800092 L126.14644,6.04800092 L126.14644,20.4057815 L129.540073,20.4057815 L129.540073,20.4057815 Z M129.461841,0.155304721 C129.487836,0.154627144 129.513915,0.154286256 129.540073,0.154286256 C129.592106,0.154286256 129.644058,0.15462642 129.695927,0.155304721 L129.999357,0.155304721 C130.151052,0.155304721 130.300071,0.16676879 130.445592,0.188877819 C136.868269,0.681581552 141.852619,6.37476562 141.852619,13.226382 C141.852619,20.0732929 136.875113,25.7633621 130.458823,26.2628637 C130.309107,26.2863077 130.155653,26.2984777 129.999357,26.2984777 L122.97345,26.2984777 C121.346226,26.2984777 120.027101,24.9793527 120.027101,23.3521296 L120.027101,3.10165282 C120.027101,1.4744297 121.346226,0.155304721 122.97345,0.155304721 L129.461841,0.155304721 L129.461841,0.155304721 Z M110.004232,3.10063435 C110.004232,1.47341123 111.323357,0.154286256 112.95058,0.154286256 C114.577803,0.154286256 115.896928,1.47341123 115.896928,3.10063435 L115.896928,23.4984289 C115.896928,25.125652 114.577803,26.444777 112.95058,26.444777 C111.323357,26.444777 110.004232,25.125652 110.004232,23.4984289 L110.004232,3.10063435 Z M94.7574389,26.444777 C87.8799503,26.444777 82.4054411,20.5085622 82.4054411,13.2995316 C82.4054411,6.09050107 87.8799503,0.154286256 94.7574389,0.154286256 C101.634927,0.154286256 107.109437,6.09050107 107.109437,13.2995316 C107.109437,20.5085622 101.634927,26.444777 94.7574389,26.444777 Z M94.7574389,20.5520808 C98.2691441,20.5520808 101.21674,17.3558919 101.21674,13.2995316 C101.21674,9.24317131 98.2691441,6.04698245 94.7574389,6.04698245 C91.2457337,6.04698245 88.2981373,9.24317131 88.2981373,13.2995316 C88.2981373,17.3558919 91.2457337,20.5520808 94.7574389,20.5520808 Z" id="Combined-Shape-Copy-16"></path>
            </g>
        </g>
    </g>
</svg>